<svg id="Layer_1" data-name="Layer 1" xmlns="http://www.w3.org/2000/svg" viewBox="0 0 100 19.152"><defs><style>.cls-1{opacity:0.14;}.cls-2{fill:#fff;}.cls-3{opacity:0.29;}.cls-4{opacity:0.43;}.cls-5{opacity:0.57;}.cls-6{opacity:0.71;}.cls-7{opacity:0.86;}</style></defs><title>ModelXchange_Horizontal</title><g id="ModelXchange_Horizontal"><g id="Cube-Octahedron_Compound" data-name="Cube-Octahedron Compound"><g class="cls-1"><polygon class="cls-2" points="13.822 14.364 5.529 19.152 11.057 19.152 13.822 14.364"/><polygon class="cls-2" points="19.35 14.364 22.114 9.576 13.822 14.364 19.35 14.364"/></g><g class="cls-3"><polygon class="cls-2" points="13.822 4.788 22.114 9.576 19.35 4.788 13.822 4.788"/><polygon class="cls-2" points="11.057 0 5.529 0 13.822 4.788 11.057 0"/></g><g class="cls-4"><polygon class="cls-2" points="5.529 9.576 13.822 14.364 11.057 9.576 5.529 9.576"/><polygon class="cls-2" points="13.822 14.364 11.057 19.152 16.586 19.152 13.822 14.364 13.822 14.364"/><polygon class="cls-2" points="0 9.576 2.764 14.364 5.529 9.576 0 9.576"/></g><g class="cls-5"><polygon class="cls-2" points="13.822 14.364 16.586 19.152 19.35 14.364 13.822 14.364"/><polygon class="cls-2" points="11.057 9.576 13.822 14.364 13.822 4.788 11.057 9.576"/><polygon class="cls-2" points="19.35 4.788 16.586 0 13.822 4.788 19.35 4.788"/></g><g class="cls-6"><polygon class="cls-2" points="13.822 4.788 13.822 4.788 5.529 0 5.529 9.576 13.822 4.788"/><polygon class="cls-2" points="5.529 9.576 5.529 19.152 13.822 14.364 13.822 14.364 5.529 9.576"/><polygon class="cls-2" points="13.822 4.788 13.822 14.364 13.822 14.364 22.114 9.576 13.822 4.788 13.822 4.788"/></g><g class="cls-7"><polygon class="cls-2" points="13.822 4.788 5.529 9.576 11.057 9.576 13.822 4.788"/><polygon class="cls-2" points="13.822 4.788 16.586 0 11.057 0 13.822 4.788 13.822 4.788"/><polygon class="cls-2" points="5.529 9.576 2.764 4.788 1.596 6.812 0 9.576 0 9.576 5.529 9.576"/></g><polygon class="cls-2" points="2.764 14.364 5.529 19.152 5.529 9.576 2.764 14.364"/><polygon class="cls-2" points="5.529 0 2.764 4.788 5.529 9.576 5.529 0"/></g><path class="cls-2" d="M78.784,103.669H77.665l-1.714-4.58v4.58H74.664V96.331H76l2.21,6.284,2.093-6.284H81.64v7.338H80.353v-4.58Z" transform="translate(-50 -90.424)"/><path class="cls-2" d="M86.646,103.8a2.9,2.9,0,0,1-1.093-.192,2.172,2.172,0,0,1-.8-.545,2.352,2.352,0,0,1-.489-.853,3.491,3.491,0,0,1-.166-1.112,3.09,3.09,0,0,1,.154-.983,2.3,2.3,0,0,1,.469-.815,2.235,2.235,0,0,1,.789-.557,2.793,2.793,0,0,1,1.116-.206,2.711,2.711,0,0,1,1.105.206,2.085,2.085,0,0,1,.764.564,2.327,2.327,0,0,1,.442.843,3.66,3.66,0,0,1,.143,1.037,3.072,3.072,0,0,1-.166,1.014,2.455,2.455,0,0,1-.483.831,2.248,2.248,0,0,1-.768.562A2.414,2.414,0,0,1,86.646,103.8Zm-.042-.843a.867.867,0,0,0,.534-.168,1.311,1.311,0,0,0,.37-.445,2.358,2.358,0,0,0,.215-.623,3.532,3.532,0,0,0,.07-.707,3.038,3.038,0,0,0-.063-.63,1.527,1.527,0,0,0-.208-.519,1.077,1.077,0,0,0-.375-.354,1.111,1.111,0,0,0-.557-.131.991.991,0,0,0-.522.136,1.126,1.126,0,0,0-.377.372,1.812,1.812,0,0,0-.227.562,3.019,3.019,0,0,0-.078.7,2.96,2.96,0,0,0,.069.628,2.045,2.045,0,0,0,.215.581,1.307,1.307,0,0,0,.379.428A.928.928,0,0,0,86.6,102.952Z" transform="translate(-50 -90.424)"/><path class="cls-2" d="M93.852,98.532a2.087,2.087,0,0,1,.619.08,1.472,1.472,0,0,1,.421.2V96.331h1.217v5.6c0,.131.007.27.019.417s.033.3.061.447a4.476,4.476,0,0,0,.108.451,2.963,2.963,0,0,0,.159.427H95.318a.652.652,0,0,1-.1-.1,1.529,1.529,0,0,1-.1-.131,1.33,1.33,0,0,1-.084-.147,1.216,1.216,0,0,1-.061-.147,1.831,1.831,0,0,1-.583.456,1.686,1.686,0,0,1-.752.162,2.169,2.169,0,0,1-.948-.2,2.07,2.07,0,0,1-.709-.553,2.442,2.442,0,0,1-.443-.833,3.471,3.471,0,0,1-.152-1.044,2.859,2.859,0,0,1,.169-.974,2.527,2.527,0,0,1,.487-.829,2.4,2.4,0,0,1,.772-.578A2.342,2.342,0,0,1,93.852,98.532Zm.01,4.308a2.2,2.2,0,0,0,.524-.058,2.059,2.059,0,0,0,.506-.209V99.642a2.323,2.323,0,0,0-.417-.141A2.085,2.085,0,0,0,94,99.45a1.185,1.185,0,0,0-.564.131,1.246,1.246,0,0,0-.414.353,1.613,1.613,0,0,0-.258.52,2.2,2.2,0,0,0-.089.63,2.867,2.867,0,0,0,.073.653,1.916,1.916,0,0,0,.22.562,1.194,1.194,0,0,0,.37.393A.916.916,0,0,0,93.862,102.84Z" transform="translate(-50 -90.424)"/><path class="cls-2" d="M103.451,102.83a3.635,3.635,0,0,1-.559.5,2.467,2.467,0,0,1-.536.288,2.268,2.268,0,0,1-.543.133,4.877,4.877,0,0,1-.576.033,2.519,2.519,0,0,1-1.108-.224,2.118,2.118,0,0,1-.754-.6,2.485,2.485,0,0,1-.43-.862,3.646,3.646,0,0,1-.139-1.011,3.256,3.256,0,0,1,.143-.967,2.315,2.315,0,0,1,.436-.812,2.12,2.12,0,0,1,.735-.562,2.392,2.392,0,0,1,1.042-.211,2.747,2.747,0,0,1,.936.145,1.775,1.775,0,0,1,.672.417,1.734,1.734,0,0,1,.405.658,2.576,2.576,0,0,1,.136.864c0,.121,0,.247-.012.377a3.6,3.6,0,0,1-.049.405h-3.161a1.677,1.677,0,0,0,.08.482,1.873,1.873,0,0,0,.232.494,1.373,1.373,0,0,0,.377.386.88.88,0,0,0,.515.155,2.3,2.3,0,0,0,.442-.038,1.256,1.256,0,0,0,.351-.121,1.42,1.42,0,0,0,.309-.223,3.481,3.481,0,0,0,.317-.344Zm-2.36-3.385a1.022,1.022,0,0,0-.487.1.827.827,0,0,0-.3.272,1.1,1.1,0,0,0-.159.383,2.116,2.116,0,0,0-.047.446h1.934a3.094,3.094,0,0,0-.028-.41,1.074,1.074,0,0,0-.127-.389.793.793,0,0,0-.283-.29A.936.936,0,0,0,101.091,99.445Z" transform="translate(-50 -90.424)"/><path class="cls-2" d="M105.877,96.331h1.217v6.116a.555.555,0,0,0,.078.337.256.256,0,0,0,.213.1.723.723,0,0,0,.262-.042l.248-.1.206.627a2.379,2.379,0,0,1-.255.15,2.431,2.431,0,0,1-.29.124,2.2,2.2,0,0,1-.314.086,1.607,1.607,0,0,1-.321.034,1.777,1.777,0,0,1-.389-.043.8.8,0,0,1-.332-.161.841.841,0,0,1-.234-.33,1.419,1.419,0,0,1-.089-.543Z" transform="translate(-50 -90.424)"/><path class="cls-2" d="M113.262,99.717l2.457,3.952h-1.437l-1.831-2.945-1.531,2.945h-1.409l2.374-3.84-2.135-3.5h1.437l1.447,2.59,1.466-2.59h1.423Z" transform="translate(-50 -90.424)"/><path class="cls-2" d="M121.016,102.8a2.2,2.2,0,0,1-.45.483,1.989,1.989,0,0,1-.5.283,2.2,2.2,0,0,1-.541.133,4.8,4.8,0,0,1-.564.034,2.718,2.718,0,0,1-1.15-.221,2.19,2.19,0,0,1-.777-.581,2.288,2.288,0,0,1-.44-.821,3.278,3.278,0,0,1-.138-.944,3.174,3.174,0,0,1,.168-1.049,2.364,2.364,0,0,1,.5-.835,2.251,2.251,0,0,1,.817-.553,2.988,2.988,0,0,1,1.135-.2c.172,0,.337.008.5.023a2.408,2.408,0,0,1,.462.092,2.058,2.058,0,0,1,.426.185,1.871,1.871,0,0,1,.391.3l-.758.782c-.091-.093-.175-.173-.253-.239a1.27,1.27,0,0,0-.244-.161,1.035,1.035,0,0,0-.264-.092,1.636,1.636,0,0,0-.312-.028,1.07,1.07,0,0,0-.578.15,1.285,1.285,0,0,0-.4.389,1.707,1.707,0,0,0-.23.534,2.452,2.452,0,0,0-.072.585,3.233,3.233,0,0,0,.075.712,1.749,1.749,0,0,0,.234.578,1.161,1.161,0,0,0,.4.386,1.138,1.138,0,0,0,.58.141,1.616,1.616,0,0,0,.307-.028.976.976,0,0,0,.288-.106,1.266,1.266,0,0,0,.278-.213,2.3,2.3,0,0,0,.284-.351Z" transform="translate(-50 -90.424)"/><path class="cls-2" d="M122.116,96.331h1.217V99a2.538,2.538,0,0,1,.232-.169,1.713,1.713,0,0,1,.29-.15,2.07,2.07,0,0,1,.775-.145,2.581,2.581,0,0,1,.822.122,1.7,1.7,0,0,1,.625.356,1.545,1.545,0,0,1,.4.578,2.082,2.082,0,0,1,.138.78v3.3h-1.218v-3.282a.932.932,0,0,0-.247-.719.982.982,0,0,0-.689-.227,2.229,2.229,0,0,0-.274.016,2.155,2.155,0,0,0-.269.051c-.091.024-.184.052-.279.085s-.2.071-.3.114v3.962h-1.217Z" transform="translate(-50 -90.424)"/><path class="cls-2" d="M127.954,99.3a2.9,2.9,0,0,1,.946-.564,3.28,3.28,0,0,1,1.152-.2,3.179,3.179,0,0,1,.782.094,2.137,2.137,0,0,1,.665.285,1.453,1.453,0,0,1,.464.494,1.419,1.419,0,0,1,.173.714v2.257a1.716,1.716,0,0,0,.019.274.4.4,0,0,0,.063.173.235.235,0,0,0,.115.09.506.506,0,0,0,.173.025,1.361,1.361,0,0,0,.14-.014c.069-.009.135-.02.2-.032l.131.538c-.075.047-.151.091-.229.131a1.614,1.614,0,0,1-.251.1,2.081,2.081,0,0,1-.29.073,2.03,2.03,0,0,1-.344.028,1.023,1.023,0,0,1-.588-.161.728.728,0,0,1-.3-.461,2.291,2.291,0,0,1-.831.5,2.339,2.339,0,0,1-.426.1,3.3,3.3,0,0,1-.415.028,1.971,1.971,0,0,1-.613-.089,1.23,1.23,0,0,1-.463-.265,1.145,1.145,0,0,1-.3-.435,1.65,1.65,0,0,1-.1-.606,1.79,1.79,0,0,1,.12-.682,1.5,1.5,0,0,1,.33-.5,1.775,1.775,0,0,1,.5-.349,3.021,3.021,0,0,1,.635-.217,5.063,5.063,0,0,1,.728-.113c.255-.022.516-.033.781-.033v-.182a1.183,1.183,0,0,0-.069-.427.765.765,0,0,0-.195-.29.779.779,0,0,0-.3-.166,1.291,1.291,0,0,0-.384-.054,1.73,1.73,0,0,0-.337.031,1.3,1.3,0,0,0-.321.107,2.155,2.155,0,0,0-.335.206,4.1,4.1,0,0,0-.384.331Zm2.964,1.728a4.281,4.281,0,0,0-.891.117,1.609,1.609,0,0,0-.553.246.813.813,0,0,0-.283.355,1.206,1.206,0,0,0-.08.448,1.045,1.045,0,0,0,.047.342.567.567,0,0,0,.133.22.493.493,0,0,0,.209.119.975.975,0,0,0,.267.035c.087,0,.177,0,.269-.014a1.655,1.655,0,0,0,.283-.054,1.776,1.776,0,0,0,.3-.11,1.979,1.979,0,0,0,.3-.178Z" transform="translate(-50 -90.424)"/><path class="cls-2" d="M133.925,99.478c0-.1,0-.229-.007-.387a3.069,3.069,0,0,0-.054-.479h1.147a.5.5,0,0,1,.028.091c.01.039.02.081.031.126s.02.092.028.141.015.093.021.133a2.147,2.147,0,0,1,.271-.206,2.445,2.445,0,0,1,.349-.184,2.288,2.288,0,0,1,.41-.132,2.083,2.083,0,0,1,.459-.049,2.136,2.136,0,0,1,.733.122,1.724,1.724,0,0,1,.59.351,1.64,1.64,0,0,1,.395.562,1.864,1.864,0,0,1,.146.754v3.348h-1.218V100.55a1.859,1.859,0,0,0-.061-.515.836.836,0,0,0-.18-.339.705.705,0,0,0-.293-.188,1.238,1.238,0,0,0-.4-.058,2.014,2.014,0,0,0-.281.021,2.5,2.5,0,0,0-.307.063c-.105.028-.208.061-.309.1a2.174,2.174,0,0,0-.283.127v3.91h-1.218Z" transform="translate(-50 -90.424)"/><path class="cls-2" d="M143.627,99.384a1.3,1.3,0,0,1,.206.4,1.931,1.931,0,0,1,.089.623,1.534,1.534,0,0,1-.173.735,1.822,1.822,0,0,1-.443.546,1.99,1.99,0,0,1-.59.339,1.794,1.794,0,0,1-.615.117,3.69,3.69,0,0,1-.687-.053,2.045,2.045,0,0,1-.451-.139.941.941,0,0,0-.169.19.442.442,0,0,0-.075.255.157.157,0,0,0,.077.122,1.011,1.011,0,0,0,.2.107,2.107,2.107,0,0,0,.288.1c.109.03.221.057.337.08l.344.066.316.054.5.084q.255.042.5.1a3.11,3.11,0,0,1,.458.15,1.435,1.435,0,0,1,.379.225.959.959,0,0,1,.258.325,1.015,1.015,0,0,1,.094.452,1.332,1.332,0,0,1-.457,1.051,1.7,1.7,0,0,1-.485.3,3.4,3.4,0,0,1-.582.183,4.482,4.482,0,0,1-.628.092c-.213.015-.419.023-.616.023a5.152,5.152,0,0,1-.941-.075,2.342,2.342,0,0,1-.656-.211,1.006,1.006,0,0,1-.381-.323.737.737,0,0,1-.124-.417,1.118,1.118,0,0,1,.087-.454,1.293,1.293,0,0,1,.227-.353,1.669,1.669,0,0,1,.32-.277c.12-.079.243-.153.368-.222-.066-.037-.146-.079-.241-.124a1.418,1.418,0,0,1-.276-.175.973.973,0,0,1-.227-.268.757.757,0,0,1-.094-.393.736.736,0,0,1,.063-.3.935.935,0,0,1,.175-.258,1.333,1.333,0,0,1,.265-.21,2.114,2.114,0,0,1,.33-.164,2.019,2.019,0,0,1-.323-.291,1.459,1.459,0,0,1-.215-.32,1.409,1.409,0,0,1-.122-.368,2.325,2.325,0,0,1-.038-.435,1.662,1.662,0,0,1,.157-.74,1.569,1.569,0,0,1,.436-.541,1.931,1.931,0,0,1,.665-.337,2.936,2.936,0,0,1,.845-.115,3.147,3.147,0,0,1,.358.019,1.979,1.979,0,0,1,.295.056,2.8,2.8,0,0,1,.277.091c.092.036.2.079.311.129a4.522,4.522,0,0,1,.768-.166,5.637,5.637,0,0,1,.688-.045l-.2.909Zm-2.557,4.36a.737.737,0,0,0-.164.171,1.049,1.049,0,0,0-.107.2,1.03,1.03,0,0,0-.061.211,1.112,1.112,0,0,0-.019.2.489.489,0,0,0,.094.279.947.947,0,0,0,.245.244,1.4,1.4,0,0,0,.349.17,1.261,1.261,0,0,0,.4.066,3.6,3.6,0,0,0,.74-.064,1.544,1.544,0,0,0,.478-.17.679.679,0,0,0,.255-.253.666.666,0,0,0,.077-.314.256.256,0,0,0-.085-.19.764.764,0,0,0-.231-.145,2.282,2.282,0,0,0-.349-.112c-.134-.033-.281-.066-.44-.1q-.375-.081-.658-.127C141.408,103.783,141.232,103.759,141.07,103.744Zm.885-2.323a.773.773,0,0,0,.412-.1.647.647,0,0,0,.237-.253,1.055,1.055,0,0,0,.108-.365,3.773,3.773,0,0,0,.026-.433,1.14,1.14,0,0,0-.223-.782.836.836,0,0,0-.649-.244.787.787,0,0,0-.6.249,1.056,1.056,0,0,0-.231.744,1.969,1.969,0,0,0,.049.447,1.1,1.1,0,0,0,.159.375.841.841,0,0,0,.286.26A.871.871,0,0,0,141.955,101.421Z" transform="translate(-50 -90.424)"/><path class="cls-2" d="M150,102.83a3.592,3.592,0,0,1-.56.5,2.445,2.445,0,0,1-.536.288,2.257,2.257,0,0,1-.543.133,4.852,4.852,0,0,1-.576.033,2.515,2.515,0,0,1-1.107-.224,2.11,2.11,0,0,1-.754-.6,2.487,2.487,0,0,1-.431-.862,3.683,3.683,0,0,1-.138-1.011,3.256,3.256,0,0,1,.143-.967,2.329,2.329,0,0,1,.435-.812,2.114,2.114,0,0,1,.736-.562,2.388,2.388,0,0,1,1.041-.211,2.757,2.757,0,0,1,.937.145,1.791,1.791,0,0,1,.672.417,1.747,1.747,0,0,1,.405.658,2.6,2.6,0,0,1,.136.864c0,.121,0,.247-.012.377a3.6,3.6,0,0,1-.049.405h-3.161a1.677,1.677,0,0,0,.08.482,1.873,1.873,0,0,0,.232.494,1.369,1.369,0,0,0,.376.386.882.882,0,0,0,.515.155,2.307,2.307,0,0,0,.443-.038,1.279,1.279,0,0,0,.351-.121,1.42,1.42,0,0,0,.309-.223,3.364,3.364,0,0,0,.316-.344Zm-2.36-3.385a1.022,1.022,0,0,0-.487.1.827.827,0,0,0-.3.272,1.122,1.122,0,0,0-.16.383,2.116,2.116,0,0,0-.046.446h1.934a3.273,3.273,0,0,0-.028-.41,1.093,1.093,0,0,0-.127-.389.8.8,0,0,0-.283-.29A.938.938,0,0,0,147.64,99.445Z" transform="translate(-50 -90.424)"/></g></svg>