<svg id="Layer_1" data-name="Layer 1" xmlns="http://www.w3.org/2000/svg" viewBox="0 0 24 24"><defs><style>.cls-1{fill:#e02270;}.cls-2{fill:#fff;}</style></defs><title>Clinical</title><circle class="cls-1" cx="12" cy="12" r="12"/><path class="cls-2" d="M103.334,105.3422a7.3318,7.3318,0,0,1-3.0254.544c-3.23,0-5.66-2.04-5.66-5.7959a5.7014,5.7014,0,0,1,5.9834-6.0176,6.1431,6.1431,0,0,1,2.72.51l-.3575,1.207a5.3743,5.3743,0,0,0-2.3115-.4766c-2.6855,0-4.4707,1.7168-4.4707,4.7256,0,2.8047,1.6152,4.6065,4.4024,4.6065a5.9183,5.9183,0,0,0,2.414-.4756Z" transform="translate(-88 -88)"/></svg>