<svg id="Layer_1" data-name="Layer 1" xmlns="http://www.w3.org/2000/svg" viewBox="0 0 24 24"><defs><style>.cls-1{fill:#27419a;}.cls-2{fill:#fff;}</style></defs><title>Genomics</title><circle class="cls-1" cx="12" cy="12" r="12"/><path class="cls-2" d="M16.2,17.2a10.63,10.63,0,0,1-3.506.627A5.864,5.864,0,0,1,8.43,16.318a5.869,5.869,0,0,1-1.593-4.25c.017-3.4,2.354-5.893,6.181-5.893a7.051,7.051,0,0,1,2.844.525l-.356,1.2a5.911,5.911,0,0,0-2.523-.491A4.268,4.268,0,0,0,8.4,12c0,2.9,1.744,4.605,4.4,4.605a4.8,4.8,0,0,0,1.965-.3V12.9h-2.32V11.712H16.2Z"/></svg>