<svg id="Layer_1" data-name="Layer 1" xmlns="http://www.w3.org/2000/svg" viewBox="0 0 24 24"><defs><style>.cls-1{fill:#f8ae1a;}.cls-2{fill:#fff;}</style></defs><title>M</title><circle class="cls-1" cx="12" cy="12" r="12"/><path class="cls-2" d="M16.1,12.694c-.084-1.591-.186-3.5-.169-4.927h-.051c-.389,1.337-.863,2.76-1.438,4.334l-2.016,5.537H11.307L9.46,12.2c-.541-1.609-1-3.082-1.32-4.436H8.105c-.033,1.423-.118,3.336-.219,5.046l-.3,4.893H6.175l.8-11.412H8.851L10.8,11.813c.474,1.4.863,2.66,1.151,3.844H12c.288-1.151.7-2.4,1.2-3.844l2.032-5.519h1.88l.711,11.412H16.386Z"/></svg>