<svg id="Layer_1" data-name="Layer 1" xmlns="http://www.w3.org/2000/svg" viewBox="0 0 24 24"><defs><style>.cls-1{fill:#8f58a4;}.cls-2{fill:#fff;}</style></defs><title>Models</title><circle class="cls-1" cx="12" cy="12" r="12"/><path class="cls-2" d="M4.31,15.92a5.218,5.218,0,0,0,2.642.746c1.507,0,2.388-.8,2.388-1.948,0-1.066-.611-1.675-2.151-2.268-1.862-.662-3.014-1.627-3.014-3.235,0-1.778,1.473-3.1,3.691-3.1a5.18,5.18,0,0,1,2.523.56l-.407,1.2a4.529,4.529,0,0,0-2.167-.543c-1.558,0-2.151.932-2.151,1.711,0,1.066.7,1.592,2.27,2.2,1.93.744,2.913,1.676,2.913,3.351,0,1.761-1.3,3.286-4,3.286a5.914,5.914,0,0,1-2.912-.728Z"/><path class="cls-2" d="M12.865,6.455a14.326,14.326,0,0,1,2.693-.237,4.713,4.713,0,0,1,3.132.83,2.392,2.392,0,0,1,.949,2.016,2.709,2.709,0,0,1-1.931,2.505V11.6a2.941,2.941,0,0,1,2.354,2.861A3.076,3.076,0,0,1,19.1,16.75c-.8.728-2.083,1.066-3.946,1.066a17,17,0,0,1-2.286-.136Zm1.474,4.674h1.337c1.558,0,2.472-.813,2.472-1.914,0-1.337-1.016-1.862-2.5-1.862a6.49,6.49,0,0,0-1.3.1Zm0,5.468a7.693,7.693,0,0,0,1.235.069c1.525,0,2.93-.56,2.93-2.22,0-1.556-1.337-2.2-2.946-2.2H14.339Z"/></svg>