<svg id="Layer_1" data-name="Layer 1" xmlns="http://www.w3.org/2000/svg" viewBox="0 0 24 24"><defs><style>.cls-1{fill:#2d8b52;}.cls-2{fill:#fff;}</style></defs><title>Proteomics</title><circle class="cls-1" cx="12" cy="12" r="12"/><path class="cls-2" d="M9.3,6.472a17.048,17.048,0,0,1,2.828-.22,4.688,4.688,0,0,1,3.2.948,3.068,3.068,0,0,1,1,2.387,3.357,3.357,0,0,1-.881,2.439,4.725,4.725,0,0,1-3.486,1.253,5.1,5.1,0,0,1-1.186-.1v4.571H9.3Zm1.474,5.5A4.917,4.917,0,0,0,12,12.093c1.778,0,2.862-.864,2.862-2.438,0-1.507-1.067-2.235-2.693-2.235a6.156,6.156,0,0,0-1.388.119Z"/></svg>