<?xml version="1.0" encoding="utf-8"?>
<!-- Generator: Adobe Illustrator 23.0.4, SVG Export Plug-In . SVG Version: 6.00 Build 0)  -->
<svg version="1.1" id="Layer_1" xmlns="http://www.w3.org/2000/svg" xmlns:xlink="http://www.w3.org/1999/xlink" x="0px" y="0px"
	 viewBox="0 0 24 24" style="enable-background:new 0 0 24 24;" xml:space="preserve">
<style type="text/css">
	.st0{fill:#B43600;}
	.st1{fill:#FFFFFF;}
</style>
<g id="Recurrated_Models">
	<circle class="st0" cx="12" cy="12" r="12"/>
	<g>
		<path class="st1" d="M2.5,6.6c0.7-0.1,1.8-0.2,2.8-0.2c1.5,0,2.5,0.3,3.2,0.9c0.6,0.5,0.9,1.3,0.9,2.1c0,1.5-0.9,2.5-2.1,2.9v0.1
			c0.9,0.3,1.4,1.1,1.6,2.3c0.4,1.6,0.6,2.6,0.9,3.1H8.3c-0.2-0.3-0.4-1.3-0.7-2.7c-0.3-1.5-0.9-2.1-2.2-2.2H4v4.9H2.5V6.6z M4,11.7
			h1.5C7,11.7,8,10.8,8,9.6c0-1.4-1-2.1-2.6-2.1C4.7,7.5,4.2,7.5,4,7.6V11.7z"/>
		<path class="st1" d="M19.8,12.7c-0.1-1.6-0.2-3.4-0.2-4.8h-0.1c-0.4,1.3-0.8,2.7-1.4,4.3l-2,5.4h-1.1l-1.8-5.3
			c-0.5-1.6-1-3-1.3-4.4h0c0,1.4-0.1,3.3-0.2,5l-0.3,4.8H10l0.8-11.2h1.8l1.9,5.4c0.5,1.4,0.8,2.6,1.1,3.8h0
			c0.3-1.1,0.7-2.4,1.2-3.8l2-5.4h1.8l0.7,11.2h-1.4L19.8,12.7z"/>
	</g>
</g>
</svg>
