<?xml version="1.0" encoding="utf-8"?>
<!-- Generator: Adobe Illustrator 16.0.4, SVG Export Plug-In . SVG Version: 6.00 Build 0)  -->
<!DOCTYPE svg PUBLIC "-//W3C//DTD SVG 1.1//EN" "http://www.w3.org/Graphics/SVG/1.1/DTD/svg11.dtd">
<svg version="1.1" xmlns="http://www.w3.org/2000/svg" xmlns:xlink="http://www.w3.org/1999/xlink" x="0px" y="0px" width="64px"
	 height="64px" viewBox="0 0 640 640" enable-background="new 0 0 640 640" xml:space="preserve">
<g id="background">
	<g id="outer">
		<circle fill="#69798C" cx="320" cy="320" r="316"/>
	</g>
	<g id="inner">
		<circle fill="#EDF2F8" cx="320" cy="320" r="284"/>
	</g>
</g>
<g id="ae_logo">
	<linearGradient id="ae_logo_fill" gradientUnits="userSpaceOnUse" x1="51.002" y1="337.8018" x2="544.5453" y2="303.2899">
		<stop  offset="0" style="stop-color:#960800"/>
		<stop  offset="0.5" style="stop-color:#FF3F3F"/>
		<stop  offset="1" style="stop-color:#00FF00"/>
	</linearGradient>
	
		<path id="ae_logo_path" fill="url(#ae_logo_fill)" d="
		M291,500c-0.747-10.825,15-69,18-138c0.479-11.007,1.49-23.977-23-29c-39-8-127-7-167-1c-10.986,1.647-22.738,6-22,20
		c1.115,21.142,12.72,44.258,22.335,59.709c6.242,10.053,27.729,38.689,3.86,29.291C101,429,71.368,396.854,57,359
		c-12-30-7.123-73.171,9-102c18.803-33.647,50.104-61.067,82-78c81-43,149-47,197-47c84.006,0,147,20,182,40
		c24.433,13.961-7,14-25.516,9.996c-18.306-3.958-109.943-27.685-165.689-20.548c-19.095,2.445-26.806,14.615-21.849,39.94
		C321.689,229.8,327.939,245.055,335,262c10,24,12.035,32.688,49,37c60,7,81.549,8.391,103.119,11.804
		c13.881,2.196,14.645,8.984,0.552,11.421C468.306,325.599,429,328,384,332c-31.937,2.839-34,7-40,32
		c-2.514,10.473-7.221,50.201-6.881,66.564c0.512,23.352,1.785,41.509,35.5,41.541c84.397,0.068,120.095-25.004,157.324-29.443
		c20.863-2.494,26.445,4.441,17.057,9.338C492.772,485.807,410,511,291,500z M302,269c-3-26-13-49-18.068-58.876
		C272.505,187.856,257,163,207,185c-28,12-75,37-97,72c-11.226,17.86-15,40,8,42c40.776,3.546,117.154,4.484,162,0
		C310,296,303.146,278.936,302,269z"/>
</g>
</svg>
