<svg id="art" xmlns="http://www.w3.org/2000/svg" xmlns:xlink="http://www.w3.org/1999/xlink" viewBox="0 0 162.5 198.97"><defs><style>.cls-1{fill:#99361f;}.cls-2{fill:#5e4741;}.cls-3{fill:#ed7255;}.cls-4{opacity:0.5;}.cls-5{fill:#fff;}.cls-6{fill:#5d90c2;}.cls-7{clip-path:url(#clip-path);}.cls-8{fill:#b5472d;}</style><clipPath id="clip-path" transform="translate(-49 -35.5)"><path class="cls-1" d="M186.19,155.88H74.32a9.75,9.75,0,0,1-9.75-9.75h0a9.75,9.75,0,0,1,9.75-9.75H186.19a9.75,9.75,0,0,1,9.75,9.75h0A9.75,9.75,0,0,1,186.19,155.88Z"/></clipPath></defs><title>jpost.design4.outline</title><path class="cls-2" d="M64,206v7.2c0,2.13-1,3-3,3s-2.65-1.36-2.65-2.93v-0.43h1.85v0.31c0,1.06.17,1.57,0.9,1.57s0.9-.5.9-1.57V206h2Z" transform="translate(-49 -35.5)"/><path class="cls-2" d="M65.22,210.78v-0.18c0-1.74,1.19-2.33,2.65-2.33,2.3,0,2.73,1,2.73,2.31v4a3.07,3.07,0,0,0,.24,1.46H69a3.18,3.18,0,0,1-.24-0.78h0a1.86,1.86,0,0,1-1.92,1A1.9,1.9,0,0,1,65,214a2.12,2.12,0,0,1,1.91-2.35l1.09-.29a0.81,0.81,0,0,0,.77-0.88,0.8,0.8,0,0,0-.9-0.92,0.86,0.86,0,0,0-.9,1v0.21H65.22Zm3.53,1.46a2.39,2.39,0,0,1-.83.38,1.14,1.14,0,0,0-1.09,1.22,0.86,0.86,0,0,0,.73,1.05,1.14,1.14,0,0,0,1.19-1.16v-1.48Z" transform="translate(-49 -35.5)"/><path class="cls-2" d="M72,208.46h1.85v0.8h0a1.83,1.83,0,0,1,1.71-1c1.58,0,2.31,1.16,2.31,4s-0.73,4-2.31,4a1.81,1.81,0,0,1-1.62-.9h0v3.17H72v-10Zm3,6.25c0.84,0,1-.84,1-2.48s-0.17-2.48-1-2.48-1,.84-1,2.48S74.06,214.71,74.92,214.71Z" transform="translate(-49 -35.5)"/><path class="cls-2" d="M78.95,210.78v-0.18c0-1.74,1.19-2.33,2.65-2.33,2.3,0,2.73,1,2.73,2.31v4a3.07,3.07,0,0,0,.24,1.46H82.72a3.17,3.17,0,0,1-.24-0.78h0a1.86,1.86,0,0,1-1.92,1A1.9,1.9,0,0,1,78.71,214a2.12,2.12,0,0,1,1.91-2.35l1.09-.29a0.81,0.81,0,0,0,.77-0.88,0.8,0.8,0,0,0-.9-0.92,0.86,0.86,0,0,0-.9,1v0.21H78.95Zm3.53,1.46a2.39,2.39,0,0,1-.83.38,1.14,1.14,0,0,0-1.09,1.22,0.86,0.86,0,0,0,.73,1.05,1.14,1.14,0,0,0,1.19-1.16v-1.48Z" transform="translate(-49 -35.5)"/><path class="cls-2" d="M85.7,208.46h1.85v0.88h0a2.07,2.07,0,0,1,1.92-1.08c1.2,0,1.92.66,1.92,2.14V216H89.48v-5.2c0-.76-0.25-1.05-0.83-1.05a1,1,0,0,0-1,1.25v5H85.7v-7.54Z" transform="translate(-49 -35.5)"/><path class="cls-2" d="M96.11,206h3.53c2,0,2.75,1.5,2.75,3,0,2.07-1.27,3-3.18,3H98.13v4h-2V206Zm2,4.52H99a1.53,1.53,0,0,0-.06-3H98.13v3Z" transform="translate(-49 -35.5)"/><path class="cls-2" d="M103.32,208.46h1.85v1h0a2,2,0,0,1,1.74-1.21l0.35,0v1.85l-0.6,0a1.3,1.3,0,0,0-1.43,1.36V216h-1.93v-7.54Z" transform="translate(-49 -35.5)"/><path class="cls-2" d="M110.7,208.27c2.33,0,3,1.34,3,4s-0.76,4-3,4-3-1.34-3-4S108.49,208.27,110.7,208.27Zm0,6.61c0.78,0,1-.77,1-2.65s-0.25-2.65-1-2.65c-1,0-1,1.11-1,2.65S109.75,214.88,110.7,214.88Z" transform="translate(-49 -35.5)"/><path class="cls-2" d="M115.13,206.31h1.93v2.16h1.12v1.32h-1.12v4.08c0,0.59.13,0.83,0.69,0.83l0.43,0V216a12.16,12.16,0,0,1-1.26.08c-1.51,0-1.79-.46-1.79-2v-4.31h-1v-1.32h1v-2.16Z" transform="translate(-49 -35.5)"/><path class="cls-2" d="M120.5,212.53v0.6c0,0.88.24,1.75,1,1.75s0.91-.49,1-1.41h1.74c-0.07,1.75-.91,2.73-2.73,2.73-2.8,0-2.91-2.16-2.91-4s0.39-3.89,3-3.89c2.26,0,2.76,1.51,2.76,3.82v0.43H120.5Zm2-1.15c0-1.15-.18-1.79-1-1.79s-1,.8-1,1.5v0.29h2Z" transform="translate(-49 -35.5)"/><path class="cls-2" d="M128,208.27c2.33,0,3,1.34,3,4s-0.76,4-3,4-3-1.34-3-4S125.84,208.27,128,208.27Zm0,6.61c0.78,0,1-.77,1-2.65s-0.25-2.65-1-2.65c-1,0-1,1.11-1,2.65S127.1,214.88,128,214.88Z" transform="translate(-49 -35.5)"/><path class="cls-2" d="M132.05,208.46h1.85v0.77h0a2.15,2.15,0,0,1,1.9-1,1.65,1.65,0,0,1,1.74,1.21h0a1.87,1.87,0,0,1,1.9-1.21c1.27,0,1.88.8,1.88,2.26V216h-1.93v-5.27c0-.63-0.21-1-0.76-1a1.06,1.06,0,0,0-1,1.29v5h-1.93v-5.27c0-.63-0.21-1-0.76-1a1.06,1.06,0,0,0-1,1.29v5h-1.93v-7.54Z" transform="translate(-49 -35.5)"/><path class="cls-2" d="M144.32,212.53v0.6c0,0.88.24,1.75,1,1.75s0.91-.49,1-1.41H148c-0.07,1.75-.91,2.73-2.73,2.73-2.8,0-2.91-2.16-2.91-4s0.39-3.89,3-3.89c2.26,0,2.76,1.51,2.76,3.82v0.43h-3.82Zm2-1.15c0-1.15-.18-1.79-1-1.79s-1,.8-1,1.5v0.29h2Z" transform="translate(-49 -35.5)"/><path class="cls-2" d="M154.19,212.88v0.29c0,0.94.27,1.54,1.33,1.54a1.15,1.15,0,0,0,1.21-1.23c0-.91-0.46-1.25-1.79-1.71-1.79-.62-2.62-1.36-2.62-3,0-1.95,1.19-2.94,3.1-2.94s3.1,0.77,3.1,2.69v0.28h-1.93c0-.94-0.32-1.48-1.09-1.48a1,1,0,0,0-1.15,1.16,1.31,1.31,0,0,0,1,1.36l1.55,0.67c1.51,0.66,1.91,1.43,1.91,2.65,0,2.12-1.29,3.07-3.47,3.07s-3.18-1.06-3.18-2.91v-0.41h2Z" transform="translate(-49 -35.5)"/><path class="cls-2" d="M160.19,206.31h1.93v2.16h1.12v1.32h-1.12v4.08c0,0.59.13,0.83,0.69,0.83l0.43,0V216a12.16,12.16,0,0,1-1.26.08c-1.51,0-1.79-.46-1.79-2v-4.31h-1v-1.32h1v-2.16Z" transform="translate(-49 -35.5)"/><path class="cls-2" d="M163.9,210.78v-0.18c0-1.74,1.19-2.33,2.65-2.33,2.3,0,2.73,1,2.73,2.31v4a3.07,3.07,0,0,0,.24,1.46h-1.85a3.18,3.18,0,0,1-.24-0.78h0a1.86,1.86,0,0,1-1.92,1,1.9,1.9,0,0,1-1.82-2.16,2.12,2.12,0,0,1,1.91-2.35l1.09-.29a0.81,0.81,0,0,0,.77-0.88,0.8,0.8,0,0,0-.9-0.92,0.86,0.86,0,0,0-.9,1v0.21H163.9Zm3.53,1.46a2.39,2.39,0,0,1-.83.38,1.14,1.14,0,0,0-1.09,1.22,0.86,0.86,0,0,0,.73,1.05,1.14,1.14,0,0,0,1.19-1.16v-1.48Z" transform="translate(-49 -35.5)"/><path class="cls-2" d="M170.65,208.46h1.85v0.88h0a2.07,2.07,0,0,1,1.92-1.08c1.2,0,1.92.66,1.92,2.14V216h-1.93v-5.2c0-.76-0.25-1.05-0.83-1.05a1,1,0,0,0-1,1.25v5h-1.93v-7.54Z" transform="translate(-49 -35.5)"/><path class="cls-2" d="M181.51,215.2h0a1.83,1.83,0,0,1-1.71,1c-1.58,0-2.31-1.16-2.31-4s0.73-4,2.31-4a1.81,1.81,0,0,1,1.62.9h0V206h1.93v10h-1.85v-0.8Zm-1.11-.49c0.85,0,1-.84,1-2.48s-0.17-2.48-1-2.48-1,.84-1,2.48S179.57,214.71,180.41,214.71Z" transform="translate(-49 -35.5)"/><path class="cls-2" d="M184.63,210.78v-0.18c0-1.74,1.19-2.33,2.65-2.33,2.3,0,2.73,1,2.73,2.31v4a3.07,3.07,0,0,0,.24,1.46H188.4a3.18,3.18,0,0,1-.24-0.78h0a1.86,1.86,0,0,1-1.92,1A1.9,1.9,0,0,1,184.4,214a2.12,2.12,0,0,1,1.91-2.35l1.09-.29a0.81,0.81,0,0,0,.77-0.88,0.8,0.8,0,0,0-.9-0.92,0.86,0.86,0,0,0-.9,1v0.21h-1.74Zm3.53,1.46a2.39,2.39,0,0,1-.83.38,1.14,1.14,0,0,0-1.09,1.22,0.86,0.86,0,0,0,.73,1.05,1.14,1.14,0,0,0,1.19-1.16v-1.48Z" transform="translate(-49 -35.5)"/><path class="cls-2" d="M191.38,208.46h1.85v1h0a2,2,0,0,1,1.74-1.21l0.35,0v1.85l-0.6,0a1.3,1.3,0,0,0-1.43,1.36V216h-1.93v-7.54Z" transform="translate(-49 -35.5)"/><path class="cls-2" d="M199.91,215.2h0a1.83,1.83,0,0,1-1.71,1c-1.58,0-2.31-1.16-2.31-4s0.73-4,2.31-4a1.81,1.81,0,0,1,1.63.9h0V206h1.93v10h-1.85v-0.8Zm-1.11-.49c0.85,0,1-.84,1-2.48s-0.17-2.48-1-2.48-1,.84-1,2.48S198,214.71,198.8,214.71Z" transform="translate(-49 -35.5)"/><path class="cls-2" d="M72.94,222h3.73a2.37,2.37,0,0,1,2.66,2.58c0,1.33-.53,2.23-1.67,2.47v0c1.37,0.18,1.58.94,1.61,3.05,0,1.05.07,1.6,0.45,1.79V232H77.53a1.94,1.94,0,0,1-.25-1.05L77.22,229A1.11,1.11,0,0,0,76,227.77H75V232h-2V222Zm2,4.37h0.84a1.32,1.32,0,0,0,1.51-1.5,1.24,1.24,0,0,0-1.4-1.39H75v2.89Z" transform="translate(-49 -35.5)"/><path class="cls-2" d="M82.32,228.53v0.6c0,0.88.24,1.75,1,1.75s0.91-.49,1-1.41H86c-0.07,1.75-.91,2.73-2.73,2.73-2.8,0-2.91-2.16-2.91-4s0.39-3.89,3-3.89c2.26,0,2.76,1.51,2.76,3.82v0.43H82.32Zm2-1.15c0-1.15-.18-1.79-1-1.79s-1,.8-1,1.5v0.29h2Z" transform="translate(-49 -35.5)"/><path class="cls-2" d="M87.15,224.46H89v0.8h0a1.83,1.83,0,0,1,1.71-1c1.58,0,2.31,1.16,2.31,4s-0.73,4-2.31,4a1.81,1.81,0,0,1-1.62-.9h0v3.17H87.15v-10Zm3,6.25c0.84,0,1-.84,1-2.48s-0.17-2.48-1-2.48-1,.84-1,2.48S89.25,230.71,90.1,230.71Z" transform="translate(-49 -35.5)"/><path class="cls-2" d="M96.86,224.27c2.33,0,3,1.34,3,4s-0.76,4-3,4-3-1.34-3-4S94.65,224.27,96.86,224.27Zm0,6.61c0.78,0,1-.77,1-2.65s-0.25-2.65-1-2.65c-1,0-1,1.11-1,2.65S95.91,230.88,96.86,230.88Z" transform="translate(-49 -35.5)"/><path class="cls-2" d="M102.28,229.53v0.25a1,1,0,0,0,1,1.09,0.86,0.86,0,0,0,1-.9,0.89,0.89,0,0,0-.7-0.85l-1.36-.49a2.09,2.09,0,0,1-1.61-2.1c0-1.25.78-2.27,2.77-2.27,1.75,0,2.58.78,2.58,2.14v0.31h-1.74c0-.76-0.22-1.13-0.85-1.13a0.82,0.82,0,0,0-.91.81,0.94,0.94,0,0,0,.84.88l1.16,0.39a2,2,0,0,1,1.67,2.16c0,1.58-1.18,2.37-2.8,2.37-2.17,0-2.77-1-2.77-2.4v-0.27h1.74Z" transform="translate(-49 -35.5)"/><path class="cls-2" d="M107.15,221.89h1.93v1.65h-1.93v-1.65Zm0,2.58h1.93V232h-1.93v-7.54Z" transform="translate(-49 -35.5)"/><path class="cls-2" d="M110.86,222.31h1.93v2.16h1.12v1.32H112.8v4.08c0,0.59.13,0.83,0.69,0.83l0.43,0V232a12.16,12.16,0,0,1-1.26.08c-1.51,0-1.79-.46-1.79-2v-4.31h-1v-1.32h1v-2.16Z" transform="translate(-49 -35.5)"/><path class="cls-2" d="M117.3,224.27c2.33,0,3,1.34,3,4s-0.76,4-3,4-3-1.34-3-4S115.09,224.27,117.3,224.27Zm0,6.61c0.78,0,1-.77,1-2.65s-0.25-2.65-1-2.65c-1,0-1,1.11-1,2.65S116.35,230.88,117.3,230.88Z" transform="translate(-49 -35.5)"/><path class="cls-2" d="M121.31,224.46h1.85v1h0a2,2,0,0,1,1.74-1.21l0.35,0v1.85l-0.6,0a1.3,1.3,0,0,0-1.43,1.36V232h-1.93v-7.54Z" transform="translate(-49 -35.5)"/><path class="cls-2" d="M126,233a3,3,0,0,0,.5,0,1,1,0,0,0,1-1.06l-2.12-7.54h2l1.12,5.21h0l1-5.21h1.93l-1.82,7c-0.67,2.61-1.11,3-2.9,3H126V233Z" transform="translate(-49 -35.5)"/><path class="cls-2" d="M134.66,221.8h1.57l-3.17,10.39H131.5Z" transform="translate(-49 -35.5)"/><path class="cls-2" d="M137,222h3.31c2.8,0,3.31,1.92,3.31,4.86,0,3.54-.76,5.14-3.43,5.14H137V222Zm2,8.52h0.9c1.4,0,1.68-.88,1.68-3.6,0-2.27-.18-3.43-1.72-3.43H139v7Z" transform="translate(-49 -35.5)"/><path class="cls-2" d="M144.85,226.78v-0.18c0-1.74,1.19-2.33,2.65-2.33,2.3,0,2.73,1,2.73,2.31v4a3.07,3.07,0,0,0,.24,1.46h-1.85a3.17,3.17,0,0,1-.24-0.78h0a1.86,1.86,0,0,1-1.92,1,1.9,1.9,0,0,1-1.82-2.16,2.12,2.12,0,0,1,1.91-2.35l1.09-.29a0.81,0.81,0,0,0,.77-0.88,0.8,0.8,0,0,0-.9-0.92,0.86,0.86,0,0,0-.9,1v0.21h-1.74Zm3.53,1.46a2.39,2.39,0,0,1-.83.38,1.14,1.14,0,0,0-1.09,1.22,0.86,0.86,0,0,0,.73,1.05,1.14,1.14,0,0,0,1.19-1.16v-1.48Z" transform="translate(-49 -35.5)"/><path class="cls-2" d="M152,222.31H154v2.16h1.12v1.32H154v4.08c0,0.59.13,0.83,0.69,0.83l0.43,0V232a12.16,12.16,0,0,1-1.26.08c-1.51,0-1.79-.46-1.79-2v-4.31h-1v-1.32h1v-2.16Z" transform="translate(-49 -35.5)"/><path class="cls-2" d="M155.73,226.78v-0.18c0-1.74,1.19-2.33,2.65-2.33,2.3,0,2.73,1,2.73,2.31v4a3.07,3.07,0,0,0,.24,1.46H159.5a3.18,3.18,0,0,1-.24-0.78h0a1.86,1.86,0,0,1-1.92,1,1.9,1.9,0,0,1-1.82-2.16,2.12,2.12,0,0,1,1.91-2.35l1.09-.29a0.81,0.81,0,0,0,.77-0.88,0.8,0.8,0,0,0-.9-0.92,0.86,0.86,0,0,0-.9,1v0.21h-1.74Zm3.53,1.46a2.39,2.39,0,0,1-.83.38,1.14,1.14,0,0,0-1.09,1.22,0.86,0.86,0,0,0,.73,1.05,1.14,1.14,0,0,0,1.19-1.16v-1.48Z" transform="translate(-49 -35.5)"/><path class="cls-2" d="M162.48,222h1.93v3.17h0a1.81,1.81,0,0,1,1.63-.9c1.58,0,2.31,1.16,2.31,4s-0.73,4-2.31,4a1.83,1.83,0,0,1-1.71-1h0V232h-1.85V222Zm3,8.71c0.84,0,1-.84,1-2.48s-0.17-2.48-1-2.48-1,.84-1,2.48S164.58,230.71,165.44,230.71Z" transform="translate(-49 -35.5)"/><path class="cls-2" d="M169.47,226.78v-0.18c0-1.74,1.19-2.33,2.65-2.33,2.3,0,2.73,1,2.73,2.31v4a3.07,3.07,0,0,0,.24,1.46h-1.85a3.18,3.18,0,0,1-.24-0.78h0a1.86,1.86,0,0,1-1.92,1,1.9,1.9,0,0,1-1.82-2.16,2.12,2.12,0,0,1,1.91-2.35l1.09-.29a0.81,0.81,0,0,0,.77-0.88,0.8,0.8,0,0,0-.9-0.92,0.86,0.86,0,0,0-.9,1v0.21h-1.74Zm3.53,1.46a2.39,2.39,0,0,1-.83.38,1.14,1.14,0,0,0-1.09,1.22,0.86,0.86,0,0,0,.73,1.05,1.14,1.14,0,0,0,1.19-1.16v-1.48Z" transform="translate(-49 -35.5)"/><path class="cls-2" d="M177.63,229.53v0.25a1,1,0,0,0,1,1.09,0.86,0.86,0,0,0,1-.9,0.89,0.89,0,0,0-.7-0.85l-1.36-.49a2.09,2.09,0,0,1-1.61-2.1c0-1.25.78-2.27,2.77-2.27,1.75,0,2.58.78,2.58,2.14v0.31h-1.74c0-.76-0.22-1.13-0.85-1.13a0.82,0.82,0,0,0-.91.81,0.94,0.94,0,0,0,.84.88l1.16,0.39a2,2,0,0,1,1.67,2.16c0,1.58-1.18,2.37-2.8,2.37-2.17,0-2.77-1-2.77-2.4v-0.27h1.74Z" transform="translate(-49 -35.5)"/><path class="cls-2" d="M184.08,228.53v0.6c0,0.88.24,1.75,1,1.75s0.91-.49,1-1.41h1.74c-0.07,1.75-.91,2.73-2.73,2.73-2.8,0-2.91-2.16-2.91-4s0.39-3.89,3-3.89c2.26,0,2.76,1.51,2.76,3.82v0.43h-3.82Zm2-1.15c0-1.15-.18-1.79-1-1.79s-1,.8-1,1.5v0.29h2Z" transform="translate(-49 -35.5)"/><circle class="cls-3" cx="81.25" cy="81.25" r="81.25"/><g class="cls-4"><path class="cls-1" d="M73.13,98.88a3.07,3.07,0,0,1,3.12-3.12,3.13,3.13,0,0,1,3,3.12v21c0,7.9-4.69,12.07-11.06,12.07-7.68,0-11.76-6.06-11.76-9.39a2.89,2.89,0,0,1,2.94-2.85c1.23,0,2,.53,3.2,2.59s2.5,3.69,5.31,3.69c5.27,0,5.27-5.48,5.27-9V98.88Z" transform="translate(-49 -35.5)"/><path class="cls-1" d="M90.72,129a2.94,2.94,0,0,1-3.12,2.9,2.81,2.81,0,0,1-3-2.81V102c0-3.95,2.19-5.4,5.22-5.4h9.35c6.63,0,10,5,10,10.53,0,6.89-4.39,11-10,11H90.72V129Zm6.67-16.8c3.12,0,5.53-1.45,5.53-5,0-3.91-3-4.87-5.18-4.87H92.83c-1.49,0-2.11.18-2.11,1.71v8.12h6.67Z" transform="translate(-49 -35.5)"/><path class="cls-1" d="M129,128.12a14.28,14.28,0,1,1,14.28-14.28A14.29,14.29,0,0,1,129,128.12Z" transform="translate(-49 -35.5)"/><path class="cls-1" d="M129,103.36a10.48,10.48,0,1,1-10.48,10.48A10.49,10.49,0,0,1,129,103.36m0-7.6a18.08,18.08,0,1,0,18.08,18.08A18.08,18.08,0,0,0,129,95.76h0Z" transform="translate(-49 -35.5)"/><path class="cls-1" d="M129,95.76a18.08,18.08,0,1,0,18.08,18.08A18.08,18.08,0,0,0,129,95.76Z" transform="translate(-49 -35.5)"/><path class="cls-1" d="M129,96.76a17.08,17.08,0,1,1-17.08,17.08A17.1,17.1,0,0,1,129,96.76m0-1a18.08,18.08,0,1,0,18.08,18.08A18.08,18.08,0,0,0,129,95.76h0Z" transform="translate(-49 -35.5)"/><path class="cls-1" d="M175.09,102.7a3.09,3.09,0,0,1-3.12,3.07c-0.53,0-1.1,0-2.76-1.4a10.2,10.2,0,0,0-7.2-2.72c-4.12,0-5.35,2.15-5.35,3.95,0,2.76,1.89,3.64,8.07,5.4,8.07,2.33,10.62,5.62,10.62,10.36,0,7-6.36,10.57-12.64,10.57-8.64,0-14.13-6.32-14.13-9.17a3.08,3.08,0,0,1,3.16-3.12c1.32,0,1.58.26,3.6,2.59a9.66,9.66,0,0,0,7.68,3.55c3.16,0,5.92-1.67,5.92-4.17s-1.84-3.47-8.73-5.62c-7.24-2.24-10-5.53-10-10.27,0-5.88,4.43-10,11.76-10C167.59,95.76,175.09,99.1,175.09,102.7Z" transform="translate(-49 -35.5)"/><path class="cls-1" d="M193.43,129a2.9,2.9,0,0,1-3.07,2.9,2.83,2.83,0,0,1-3-2.81v-26.5h-7.59a2.91,2.91,0,0,1-3.07-3,3.14,3.14,0,0,1,3.07-3H201a3.11,3.11,0,0,1,3.07,3.2,2.92,2.92,0,0,1-3.07,2.85h-7.59V129Z" transform="translate(-49 -35.5)"/><path class="cls-1" d="M73.13,98.88a3.07,3.07,0,0,1,3.12-3.12,3.13,3.13,0,0,1,3,3.12v21c0,7.9-4.69,12.07-11.06,12.07-7.68,0-11.76-6.06-11.76-9.39a2.89,2.89,0,0,1,2.94-2.85c1.23,0,2,.53,3.2,2.59s2.5,3.69,5.31,3.69c5.27,0,5.27-5.48,5.27-9V98.88Z" transform="translate(-49 -35.5)"/><path class="cls-1" d="M90.72,129a2.94,2.94,0,0,1-3.12,2.9,2.81,2.81,0,0,1-3-2.81V102c0-3.95,2.19-5.4,5.22-5.4h9.35c6.63,0,10,5,10,10.53,0,6.89-4.39,11-10,11H90.72V129Zm6.67-16.8c3.12,0,5.53-1.45,5.53-5,0-3.91-3-4.87-5.18-4.87H92.83c-1.49,0-2.11.18-2.11,1.71v8.12h6.67Z" transform="translate(-49 -35.5)"/><path class="cls-1" d="M129,128.12a14.28,14.28,0,1,1,14.28-14.28A14.29,14.29,0,0,1,129,128.12Z" transform="translate(-49 -35.5)"/><path class="cls-1" d="M129,103.36a10.48,10.48,0,1,1-10.48,10.48A10.49,10.49,0,0,1,129,103.36m0-7.6a18.08,18.08,0,1,0,18.08,18.08A18.08,18.08,0,0,0,129,95.76h0Z" transform="translate(-49 -35.5)"/><path class="cls-1" d="M129,95.76a18.08,18.08,0,1,0,18.08,18.08A18.08,18.08,0,0,0,129,95.76Z" transform="translate(-49 -35.5)"/><path class="cls-1" d="M129,96.76a17.08,17.08,0,1,1-17.08,17.08A17.1,17.1,0,0,1,129,96.76m0-1a18.08,18.08,0,1,0,18.08,18.08A18.08,18.08,0,0,0,129,95.76h0Z" transform="translate(-49 -35.5)"/><path class="cls-1" d="M175.09,102.7a3.09,3.09,0,0,1-3.12,3.07c-0.53,0-1.1,0-2.76-1.4a10.2,10.2,0,0,0-7.2-2.72c-4.12,0-5.35,2.15-5.35,3.95,0,2.76,1.89,3.64,8.07,5.4,8.07,2.33,10.62,5.62,10.62,10.36,0,7-6.36,10.57-12.64,10.57-8.64,0-14.13-6.32-14.13-9.17a3.08,3.08,0,0,1,3.16-3.12c1.32,0,1.58.26,3.6,2.59a9.66,9.66,0,0,0,7.68,3.55c3.16,0,5.92-1.67,5.92-4.17s-1.84-3.47-8.73-5.62c-7.24-2.24-10-5.53-10-10.27,0-5.88,4.43-10,11.76-10C167.59,95.76,175.09,99.1,175.09,102.7Z" transform="translate(-49 -35.5)"/><path class="cls-1" d="M193.43,129a2.9,2.9,0,0,1-3.07,2.9,2.83,2.83,0,0,1-3-2.81v-26.5h-7.59a2.91,2.91,0,0,1-3.07-3,3.14,3.14,0,0,1,3.07-3H201a3.11,3.11,0,0,1,3.07,3.2,2.92,2.92,0,0,1-3.07,2.85h-7.59V129Z" transform="translate(-49 -35.5)"/><path class="cls-1" d="M73.13,98.88a3.07,3.07,0,0,1,3.12-3.12,3.13,3.13,0,0,1,3,3.12v21c0,7.9-4.69,12.07-11.06,12.07-7.68,0-11.76-6.06-11.76-9.39a2.89,2.89,0,0,1,2.94-2.85c1.23,0,2,.53,3.2,2.59s2.5,3.69,5.31,3.69c5.27,0,5.27-5.48,5.27-9V98.88Z" transform="translate(-49 -35.5)"/><path class="cls-1" d="M90.72,129a2.94,2.94,0,0,1-3.12,2.9,2.81,2.81,0,0,1-3-2.81V102c0-3.95,2.19-5.4,5.22-5.4h9.35c6.63,0,10,5,10,10.53,0,6.89-4.39,11-10,11H90.72V129Zm6.67-16.8c3.12,0,5.53-1.45,5.53-5,0-3.91-3-4.87-5.18-4.87H92.83c-1.49,0-2.11.18-2.11,1.71v8.12h6.67Z" transform="translate(-49 -35.5)"/><path class="cls-1" d="M129,128.12a14.28,14.28,0,1,1,14.28-14.28A14.29,14.29,0,0,1,129,128.12Z" transform="translate(-49 -35.5)"/><path class="cls-1" d="M129,103.36a10.48,10.48,0,1,1-10.48,10.48A10.49,10.49,0,0,1,129,103.36m0-7.6a18.08,18.08,0,1,0,18.08,18.08A18.08,18.08,0,0,0,129,95.76h0Z" transform="translate(-49 -35.5)"/><path class="cls-1" d="M129,95.76a18.08,18.08,0,1,0,18.08,18.08A18.08,18.08,0,0,0,129,95.76Z" transform="translate(-49 -35.5)"/><path class="cls-1" d="M129,96.76a17.08,17.08,0,1,1-17.08,17.08A17.1,17.1,0,0,1,129,96.76m0-1a18.08,18.08,0,1,0,18.08,18.08A18.08,18.08,0,0,0,129,95.76h0Z" transform="translate(-49 -35.5)"/><path class="cls-1" d="M175.09,102.7a3.09,3.09,0,0,1-3.12,3.07c-0.53,0-1.1,0-2.76-1.4a10.2,10.2,0,0,0-7.2-2.72c-4.12,0-5.35,2.15-5.35,3.95,0,2.76,1.89,3.64,8.07,5.4,8.07,2.33,10.62,5.62,10.62,10.36,0,7-6.36,10.57-12.64,10.57-8.64,0-14.13-6.32-14.13-9.17a3.08,3.08,0,0,1,3.16-3.12c1.32,0,1.58.26,3.6,2.59a9.66,9.66,0,0,0,7.68,3.55c3.16,0,5.92-1.67,5.92-4.17s-1.84-3.47-8.73-5.62c-7.24-2.24-10-5.53-10-10.27,0-5.88,4.43-10,11.76-10C167.59,95.76,175.09,99.1,175.09,102.7Z" transform="translate(-49 -35.5)"/><path class="cls-1" d="M193.43,129a2.9,2.9,0,0,1-3.07,2.9,2.83,2.83,0,0,1-3-2.81v-26.5h-7.59a2.91,2.91,0,0,1-3.07-3,3.14,3.14,0,0,1,3.07-3H201a3.11,3.11,0,0,1,3.07,3.2,2.92,2.92,0,0,1-3.07,2.85h-7.59V129Z" transform="translate(-49 -35.5)"/><circle class="cls-1" cx="27.25" cy="51.51" r="6.67"/></g><path class="cls-5" d="M73.13,95.88a3.07,3.07,0,0,1,3.12-3.12,3.13,3.13,0,0,1,3,3.12v21c0,7.9-4.69,12.07-11.06,12.07-7.68,0-11.76-6.06-11.76-9.39a2.89,2.89,0,0,1,2.94-2.85c1.23,0,2,.53,3.2,2.59s2.5,3.69,5.31,3.69c5.27,0,5.27-5.48,5.27-9V95.88Z" transform="translate(-49 -35.5)"/><path class="cls-5" d="M90.72,126a2.94,2.94,0,0,1-3.12,2.9,2.81,2.81,0,0,1-3-2.81V99c0-3.95,2.19-5.4,5.22-5.4h9.35c6.63,0,10,5,10,10.53,0,6.89-4.39,11-10,11H90.72V126Zm6.67-16.8c3.12,0,5.53-1.45,5.53-5,0-3.91-3-4.87-5.18-4.87H92.83c-1.49,0-2.11.18-2.11,1.71v8.12h6.67Z" transform="translate(-49 -35.5)"/><path class="cls-5" d="M129,100.36a10.48,10.48,0,1,1-10.48,10.48A10.49,10.49,0,0,1,129,100.36m0-7.6a18.08,18.08,0,1,0,18.08,18.08A18.08,18.08,0,0,0,129,92.76h0Z" transform="translate(-49 -35.5)"/><path class="cls-5" d="M129,92.76a18.08,18.08,0,1,0,18.08,18.08A18.08,18.08,0,0,0,129,92.76Z" transform="translate(-49 -35.5)"/><path class="cls-5" d="M175.09,99.7a3.09,3.09,0,0,1-3.12,3.07c-0.53,0-1.1,0-2.76-1.4a10.2,10.2,0,0,0-7.2-2.72c-4.12,0-5.35,2.15-5.35,3.95,0,2.76,1.89,3.64,8.07,5.4,8.07,2.33,10.62,5.62,10.62,10.36,0,7-6.36,10.57-12.64,10.57-8.64,0-14.13-6.32-14.13-9.17a3.08,3.08,0,0,1,3.16-3.12c1.32,0,1.58.26,3.6,2.59a9.66,9.66,0,0,0,7.68,3.55c3.16,0,5.92-1.67,5.92-4.17s-1.84-3.47-8.73-5.62c-7.24-2.24-10-5.53-10-10.27,0-5.88,4.43-10,11.76-10C167.59,92.76,175.09,96.1,175.09,99.7Z" transform="translate(-49 -35.5)"/><path class="cls-5" d="M193.43,126a2.9,2.9,0,0,1-3.07,2.9,2.83,2.83,0,0,1-3-2.81V99.61h-7.59a2.91,2.91,0,0,1-3.07-3,3.14,3.14,0,0,1,3.07-3H201a3.11,3.11,0,0,1,3.07,3.2A2.92,2.92,0,0,1,201,99.61h-7.59V126Z" transform="translate(-49 -35.5)"/><circle class="cls-6" cx="27.25" cy="48.51" r="6.67"/><path class="cls-1" d="M186.19,155.88H74.32a9.75,9.75,0,0,1-9.75-9.75h0a9.75,9.75,0,0,1,9.75-9.75H186.19a9.75,9.75,0,0,1,9.75,9.75h0A9.75,9.75,0,0,1,186.19,155.88Z" transform="translate(-49 -35.5)"/><g class="cls-7"><path class="cls-8" d="M186.19,157.92H74.32a9.75,9.75,0,0,1-9.75-9.75h0a9.75,9.75,0,0,1,9.75-9.75H186.19a9.75,9.75,0,0,1,9.75,9.75h0A9.75,9.75,0,0,1,186.19,157.92Z" transform="translate(-49 -35.5)"/></g><path class="cls-6" d="M129,122.74a11.9,11.9,0,1,1,11.9-11.9A11.92,11.92,0,0,1,129,122.74Z" transform="translate(-49 -35.5)"/><path class="cls-1" d="M73.15,151.3a0.53,0.53,0,0,1-.57.54,0.52,0.52,0,0,1-.55-0.53v-6.25a0.94,0.94,0,0,1,1-1.08h2.76a2.09,2.09,0,0,1,2.24,2.18,2.13,2.13,0,0,1-.67,1.63,2,2,0,0,1-1.16.48,1.93,1.93,0,0,1,.65.66l1.2,2a0.83,0.83,0,0,1,.14.41,0.54,0.54,0,0,1-.56.53,0.55,0.55,0,0,1-.56-0.33l-0.92-1.58c-0.49-.85-0.93-1.6-1.59-1.6H73.15v3Zm2.47-4a1.09,1.09,0,0,0,1.32-1.08A1.08,1.08,0,0,0,75.7,145H73.58c-0.23,0-.43,0-0.43.37v1.84h2.47Z" transform="translate(-49 -35.5)"/><path class="cls-1" d="M80.49,149.17a1.48,1.48,0,0,0,1.35,1.69,1.3,1.3,0,0,0,1.13-.75,0.53,0.53,0,0,1,.44-0.27,0.48,0.48,0,0,1,.45.52,1.9,1.9,0,0,1-2,1.48c-0.84,0-2.4-.4-2.4-3a3.1,3.1,0,0,1,.7-2.34,2,2,0,0,1,1.58-.7,2.25,2.25,0,0,1,2.17,2.46c0,0.57-.17.9-0.71,0.9H80.49Zm2.14-1c0.2,0,.23-0.06.23-0.19a1.17,1.17,0,0,0-1.12-1.23,1.39,1.39,0,0,0-1.23,1.41h2.12Z" transform="translate(-49 -35.5)"/><path class="cls-1" d="M85.51,146.7c0-.42,0-0.88.46-0.88a0.64,0.64,0,0,1,.52.77,1.75,1.75,0,0,1,1.57-.77c1.61,0,2.39,1.43,2.39,3s-0.76,3-2.28,3a2.14,2.14,0,0,1-1.62-.67v1.27a0.5,0.5,0,0,1-.5.53,0.54,0.54,0,0,1-.54-0.52V146.7Zm1,2.71A1.43,1.43,0,0,0,88,150.76c1.26,0,1.38-1.35,1.38-1.91s-0.1-2-1.39-2a1.43,1.43,0,0,0-1.44,1.38v1.13Z" transform="translate(-49 -35.5)"/><path class="cls-1" d="M97,148.83c0,1.39-.63,3-2.58,3s-2.59-1.62-2.59-3,0.62-3,2.59-3S97,147.45,97,148.83Zm-4.1,0a1.65,1.65,0,0,0,1.51,1.94c1.38,0,1.51-1.4,1.51-1.89,0-.79-0.22-2-1.51-2S92.88,148,92.88,148.83Z" transform="translate(-49 -35.5)"/><path class="cls-1" d="M98.21,150.28a0.48,0.48,0,0,1,.49-0.5,0.66,0.66,0,0,1,.57.4,1.82,1.82,0,0,0,1.41.66,0.87,0.87,0,0,0,1-.82c0-.52-0.48-0.66-1.14-0.8-1.73-.37-2.07-1-2.07-1.69a1.84,1.84,0,0,1,2-1.72c1,0,2.13.59,2.13,1.15a0.48,0.48,0,0,1-.48.5,0.85,0.85,0,0,1-.61-0.33,1.57,1.57,0,0,0-1-.34,0.84,0.84,0,0,0-1,.69c0,0.44.23,0.51,1.62,0.88a1.68,1.68,0,0,1,1.58,1.65,2,2,0,0,1-2.19,1.82A2.3,2.3,0,0,1,98.21,150.28Z" transform="translate(-49 -35.5)"/><path class="cls-1" d="M105.91,144.52a0.72,0.72,0,1,1-.72-0.72A0.71,0.71,0,0,1,105.91,144.52Zm-0.21,6.79a0.53,0.53,0,0,1-.53.53,0.55,0.55,0,0,1-.51-0.54v-4.94a0.55,0.55,0,0,1,.54-0.54,0.54,0.54,0,0,1,.5.53v5Z" transform="translate(-49 -35.5)"/><path class="cls-1" d="M107.84,147a0.48,0.48,0,0,1-.46-0.5,0.47,0.47,0,0,1,.55-0.47h0.53v-1.08a0.51,0.51,0,0,1,.53-0.51,0.48,0.48,0,0,1,.49.5V146h1.26a0.48,0.48,0,0,1,.46.5,0.49,0.49,0,0,1-.46.47h-1.26v3.31a0.33,0.33,0,0,0,.29.42,0.85,0.85,0,0,0,.61-0.53,0.47,0.47,0,0,1,.37-0.17,0.53,0.53,0,0,1,.5.53,1.52,1.52,0,0,1-1.49,1.31,1.25,1.25,0,0,1-1.3-1.48V147h-0.61Z" transform="translate(-49 -35.5)"/><path class="cls-1" d="M117.5,148.83c0,1.39-.63,3-2.58,3s-2.59-1.62-2.59-3,0.62-3,2.59-3S117.5,147.45,117.5,148.83Zm-4.1,0a1.65,1.65,0,0,0,1.51,1.94c1.38,0,1.51-1.4,1.51-1.89,0-.79-0.22-2-1.51-2S113.4,148,113.4,148.83Z" transform="translate(-49 -35.5)"/><path class="cls-1" d="M120.2,151.36a0.48,0.48,0,0,1-.53.48,0.5,0.5,0,0,1-.51-0.49v-4.73a0.63,0.63,0,0,1,.53-0.8c0.51,0,.51.45,0.51,0.75v0.22a1.92,1.92,0,0,1,1.62-1c0.18,0,1,.09,1,0.63a0.47,0.47,0,0,1-.44.5c-0.1,0-.53-0.09-0.61-0.09-0.81,0-1.61,1.41-1.61,1.72v2.78Z" transform="translate(-49 -35.5)"/><path class="cls-1" d="M124.05,146.72a0.72,0.72,0,0,1-.09-0.34,0.57,0.57,0,0,1,.54-0.56,0.5,0.5,0,0,1,.5.33l1.5,3c0.19,0.4.22,0.45,0.36,0.47l1.54-3.49a0.51,0.51,0,0,1,.5-0.36,0.52,0.52,0,0,1,.54.58,0.73,0.73,0,0,1-.06.28l-2.18,5a1.77,1.77,0,0,1-1.85,1.27c-0.9,0-1.4-.28-1.4-0.75a0.52,0.52,0,0,1,.51-0.53,2.1,2.1,0,0,1,.34.07,1.94,1.94,0,0,0,.6.11c0.39,0,.68-0.11,1-1.06a1,1,0,0,1-.63-0.64Z" transform="translate(-49 -35.5)"/><path class="cls-1" d="M141.24,151.66a0.88,0.88,0,0,1-.94-1.05V145a0.9,0.9,0,0,1,.93-1h1.86c2,0,3.25,1.65,3.25,3.86,0,2-1.07,3.82-3.06,3.82h-2Zm0.19-1.46a0.29,0.29,0,0,0,.32.33H143c1.65,0,2.16-1.47,2.16-2.71s-0.41-2.72-2.41-2.72h-0.88a0.41,0.41,0,0,0-.47.51v4.59Z" transform="translate(-49 -35.5)"/><path class="cls-1" d="M151.62,147.74a1,1,0,0,0-.22-0.58,1.24,1.24,0,0,0-1-.34,2,2,0,0,0-1.39.39,0.74,0.74,0,0,1-.48.2,0.51,0.51,0,0,1-.49-0.53c0-.56,1-1.06,2.21-1.06a2.79,2.79,0,0,1,2,.59,1.73,1.73,0,0,1,.44,1.13v2.67a3,3,0,0,0,.1.67,1.41,1.41,0,0,1,.14.51,0.48,0.48,0,0,1-.52.44,0.61,0.61,0,0,1-.58-0.68,2.42,2.42,0,0,1-1.81.68c-2,0-2.26-1.37-2.26-1.94s0.34-2,2.54-2a2.76,2.76,0,0,1,1.37.29v-0.42Zm0,1.56s-0.16-.44-1.24-0.44c-0.47,0-1.61,0-1.61,1a1.06,1.06,0,0,0,1.24.94,1.52,1.52,0,0,0,1.61-1V149.3Z" transform="translate(-49 -35.5)"/><path class="cls-1" d="M154.49,147a0.48,0.48,0,0,1-.46-0.5,0.47,0.47,0,0,1,.55-0.47h0.53v-1.08a0.51,0.51,0,0,1,.53-0.51,0.48,0.48,0,0,1,.49.5V146h1.26a0.48,0.48,0,0,1,.46.5,0.49,0.49,0,0,1-.46.47h-1.26v3.31a0.33,0.33,0,0,0,.29.42,0.85,0.85,0,0,0,.61-0.53,0.47,0.47,0,0,1,.37-0.17,0.53,0.53,0,0,1,.5.53,1.52,1.52,0,0,1-1.49,1.31,1.25,1.25,0,0,1-1.3-1.48V147h-0.61Z" transform="translate(-49 -35.5)"/><path class="cls-1" d="M162.87,147.74a1,1,0,0,0-.22-0.58,1.24,1.24,0,0,0-1-.34,2,2,0,0,0-1.39.39,0.74,0.74,0,0,1-.48.2,0.51,0.51,0,0,1-.49-0.53c0-.56,1-1.06,2.21-1.06a2.79,2.79,0,0,1,2,.59,1.73,1.73,0,0,1,.44,1.13v2.67a3,3,0,0,0,.1.67,1.41,1.41,0,0,1,.14.51,0.48,0.48,0,0,1-.52.44,0.61,0.61,0,0,1-.58-0.68,2.42,2.42,0,0,1-1.81.68c-2,0-2.26-1.37-2.26-1.94s0.34-2,2.54-2a2.76,2.76,0,0,1,1.37.29v-0.42Zm0,1.56s-0.16-.44-1.24-0.44c-0.47,0-1.61,0-1.61,1a1.06,1.06,0,0,0,1.24.94,1.52,1.52,0,0,0,1.61-1V149.3Z" transform="translate(-49 -35.5)"/><path class="cls-1" d="M165.74,144.32a0.52,0.52,0,1,1,1,0v2.15a2.13,2.13,0,0,1,1.62-.66c1.52,0,2.28,1.37,2.28,3s-0.78,3-2.39,3a1.75,1.75,0,0,1-1.57-.76,0.64,0.64,0,0,1-.52.76c-0.46,0-.46-0.46-0.46-0.87v-6.65Zm1,5.06a1.42,1.42,0,0,0,1.44,1.38c1.3,0,1.39-1.42,1.39-2s-0.13-1.9-1.38-1.9a1.42,1.42,0,0,0-1.45,1.35v1.13Z" transform="translate(-49 -35.5)"/><path class="cls-1" d="M175.93,147.74a1,1,0,0,0-.22-0.58,1.24,1.24,0,0,0-1-.34,2,2,0,0,0-1.39.39,0.74,0.74,0,0,1-.48.2,0.51,0.51,0,0,1-.49-0.53c0-.56,1-1.06,2.21-1.06a2.79,2.79,0,0,1,2,.59,1.73,1.73,0,0,1,.44,1.13v2.67a3,3,0,0,0,.1.67,1.41,1.41,0,0,1,.14.51,0.48,0.48,0,0,1-.52.44,0.61,0.61,0,0,1-.58-0.68,2.42,2.42,0,0,1-1.81.68c-2,0-2.26-1.37-2.26-1.94s0.34-2,2.54-2a2.76,2.76,0,0,1,1.37.29v-0.42Zm0,1.56s-0.16-.44-1.24-0.44c-0.47,0-1.61,0-1.61,1a1.06,1.06,0,0,0,1.24.94,1.52,1.52,0,0,0,1.61-1V149.3Z" transform="translate(-49 -35.5)"/><path class="cls-1" d="M178.44,150.28a0.48,0.48,0,0,1,.49-0.5,0.66,0.66,0,0,1,.57.4,1.82,1.82,0,0,0,1.41.66,0.87,0.87,0,0,0,1-.82c0-.52-0.48-0.66-1.14-0.8-1.73-.37-2.07-1-2.07-1.69a1.84,1.84,0,0,1,2-1.72c1,0,2.13.59,2.13,1.15a0.48,0.48,0,0,1-.48.5,0.85,0.85,0,0,1-.61-0.33,1.57,1.57,0,0,0-1-.34,0.84,0.84,0,0,0-1,.69c0,0.44.23,0.51,1.62,0.88A1.68,1.68,0,0,1,183,150a2,2,0,0,1-2.19,1.82A2.3,2.3,0,0,1,178.44,150.28Z" transform="translate(-49 -35.5)"/><path class="cls-1" d="M185.4,149.17a1.48,1.48,0,0,0,1.35,1.69,1.3,1.3,0,0,0,1.13-.75,0.53,0.53,0,0,1,.44-0.27,0.48,0.48,0,0,1,.45.52,1.9,1.9,0,0,1-2,1.48c-0.84,0-2.4-.4-2.4-3a3.1,3.1,0,0,1,.7-2.34,2,2,0,0,1,1.58-.7,2.25,2.25,0,0,1,2.17,2.46c0,0.57-.17.9-0.71,0.9H185.4Zm2.15-1c0.2,0,.23-0.06.23-0.19a1.17,1.17,0,0,0-1.12-1.23,1.39,1.39,0,0,0-1.23,1.41h2.12Z" transform="translate(-49 -35.5)"/><path class="cls-1" d="M73.15,151.3a0.53,0.53,0,0,1-.57.54,0.52,0.52,0,0,1-.55-0.53v-6.25a0.94,0.94,0,0,1,1-1.08h2.76a2.09,2.09,0,0,1,2.24,2.18,2.13,2.13,0,0,1-.67,1.63,2,2,0,0,1-1.16.48,1.93,1.93,0,0,1,.65.66l1.2,2a0.83,0.83,0,0,1,.14.41,0.54,0.54,0,0,1-.56.53,0.55,0.55,0,0,1-.56-0.33l-0.92-1.58c-0.49-.85-0.93-1.6-1.59-1.6H73.15v3Zm2.47-4a1.09,1.09,0,0,0,1.32-1.08A1.08,1.08,0,0,0,75.7,145H73.58c-0.23,0-.43,0-0.43.37v1.84h2.47Z" transform="translate(-49 -35.5)"/><path class="cls-1" d="M80.49,149.17a1.48,1.48,0,0,0,1.35,1.69,1.3,1.3,0,0,0,1.13-.75,0.53,0.53,0,0,1,.44-0.27,0.48,0.48,0,0,1,.45.52,1.9,1.9,0,0,1-2,1.48c-0.84,0-2.4-.4-2.4-3a3.1,3.1,0,0,1,.7-2.34,2,2,0,0,1,1.58-.7,2.25,2.25,0,0,1,2.17,2.46c0,0.57-.17.9-0.71,0.9H80.49Zm2.14-1c0.2,0,.23-0.06.23-0.19a1.17,1.17,0,0,0-1.12-1.23,1.39,1.39,0,0,0-1.23,1.41h2.12Z" transform="translate(-49 -35.5)"/><path class="cls-1" d="M85.51,146.7c0-.42,0-0.88.46-0.88a0.64,0.64,0,0,1,.52.77,1.75,1.75,0,0,1,1.57-.77c1.61,0,2.39,1.43,2.39,3s-0.76,3-2.28,3a2.14,2.14,0,0,1-1.62-.67v1.27a0.5,0.5,0,0,1-.5.53,0.54,0.54,0,0,1-.54-0.52V146.7Zm1,2.71A1.43,1.43,0,0,0,88,150.76c1.26,0,1.38-1.35,1.38-1.91s-0.1-2-1.39-2a1.43,1.43,0,0,0-1.44,1.38v1.13Z" transform="translate(-49 -35.5)"/><path class="cls-1" d="M97,148.83c0,1.39-.63,3-2.58,3s-2.59-1.62-2.59-3,0.62-3,2.59-3S97,147.45,97,148.83Zm-4.1,0a1.65,1.65,0,0,0,1.51,1.94c1.38,0,1.51-1.4,1.51-1.89,0-.79-0.22-2-1.51-2S92.88,148,92.88,148.83Z" transform="translate(-49 -35.5)"/><path class="cls-1" d="M98.21,150.28a0.48,0.48,0,0,1,.49-0.5,0.66,0.66,0,0,1,.57.4,1.82,1.82,0,0,0,1.41.66,0.87,0.87,0,0,0,1-.82c0-.52-0.48-0.66-1.14-0.8-1.73-.37-2.07-1-2.07-1.69a1.84,1.84,0,0,1,2-1.72c1,0,2.13.59,2.13,1.15a0.48,0.48,0,0,1-.48.5,0.85,0.85,0,0,1-.61-0.33,1.57,1.57,0,0,0-1-.34,0.84,0.84,0,0,0-1,.69c0,0.44.23,0.51,1.62,0.88a1.68,1.68,0,0,1,1.58,1.65,2,2,0,0,1-2.19,1.82A2.3,2.3,0,0,1,98.21,150.28Z" transform="translate(-49 -35.5)"/><path class="cls-1" d="M105.91,144.52a0.72,0.72,0,1,1-.72-0.72A0.71,0.71,0,0,1,105.91,144.52Zm-0.21,6.79a0.53,0.53,0,0,1-.53.53,0.55,0.55,0,0,1-.51-0.54v-4.94a0.55,0.55,0,0,1,.54-0.54,0.54,0.54,0,0,1,.5.53v5Z" transform="translate(-49 -35.5)"/><path class="cls-1" d="M107.84,147a0.48,0.48,0,0,1-.46-0.5,0.47,0.47,0,0,1,.55-0.47h0.53v-1.08a0.51,0.51,0,0,1,.53-0.51,0.48,0.48,0,0,1,.49.5V146h1.26a0.48,0.48,0,0,1,.46.5,0.49,0.49,0,0,1-.46.47h-1.26v3.31a0.33,0.33,0,0,0,.29.42,0.85,0.85,0,0,0,.61-0.53,0.47,0.47,0,0,1,.37-0.17,0.53,0.53,0,0,1,.5.53,1.52,1.52,0,0,1-1.49,1.31,1.25,1.25,0,0,1-1.3-1.48V147h-0.61Z" transform="translate(-49 -35.5)"/><path class="cls-1" d="M117.5,148.83c0,1.39-.63,3-2.58,3s-2.59-1.62-2.59-3,0.62-3,2.59-3S117.5,147.45,117.5,148.83Zm-4.1,0a1.65,1.65,0,0,0,1.51,1.94c1.38,0,1.51-1.4,1.51-1.89,0-.79-0.22-2-1.51-2S113.4,148,113.4,148.83Z" transform="translate(-49 -35.5)"/><path class="cls-1" d="M120.2,151.36a0.48,0.48,0,0,1-.53.48,0.5,0.5,0,0,1-.51-0.49v-4.73a0.63,0.63,0,0,1,.53-0.8c0.51,0,.51.45,0.51,0.75v0.22a1.92,1.92,0,0,1,1.62-1c0.18,0,1,.09,1,0.63a0.47,0.47,0,0,1-.44.5c-0.1,0-.53-0.09-0.61-0.09-0.81,0-1.61,1.41-1.61,1.72v2.78Z" transform="translate(-49 -35.5)"/><path class="cls-1" d="M124.05,146.72a0.72,0.72,0,0,1-.09-0.34,0.57,0.57,0,0,1,.54-0.56,0.5,0.5,0,0,1,.5.33l1.5,3c0.19,0.4.22,0.45,0.36,0.47l1.54-3.49a0.51,0.51,0,0,1,.5-0.36,0.52,0.52,0,0,1,.54.58,0.73,0.73,0,0,1-.06.28l-2.18,5a1.77,1.77,0,0,1-1.85,1.27c-0.9,0-1.4-.28-1.4-0.75a0.52,0.52,0,0,1,.51-0.53,2.1,2.1,0,0,1,.34.07,1.94,1.94,0,0,0,.6.11c0.39,0,.68-0.11,1-1.06a1,1,0,0,1-.63-0.64Z" transform="translate(-49 -35.5)"/><path class="cls-1" d="M141.24,151.66a0.88,0.88,0,0,1-.94-1.05V145a0.9,0.9,0,0,1,.93-1h1.86c2,0,3.25,1.65,3.25,3.86,0,2-1.07,3.82-3.06,3.82h-2Zm0.19-1.46a0.29,0.29,0,0,0,.32.33H143c1.65,0,2.16-1.47,2.16-2.71s-0.41-2.72-2.41-2.72h-0.88a0.41,0.41,0,0,0-.47.51v4.59Z" transform="translate(-49 -35.5)"/><path class="cls-1" d="M151.62,147.74a1,1,0,0,0-.22-0.58,1.24,1.24,0,0,0-1-.34,2,2,0,0,0-1.39.39,0.74,0.74,0,0,1-.48.2,0.51,0.51,0,0,1-.49-0.53c0-.56,1-1.06,2.21-1.06a2.79,2.79,0,0,1,2,.59,1.73,1.73,0,0,1,.44,1.13v2.67a3,3,0,0,0,.1.67,1.41,1.41,0,0,1,.14.51,0.48,0.48,0,0,1-.52.44,0.61,0.61,0,0,1-.58-0.68,2.42,2.42,0,0,1-1.81.68c-2,0-2.26-1.37-2.26-1.94s0.34-2,2.54-2a2.76,2.76,0,0,1,1.37.29v-0.42Zm0,1.56s-0.16-.44-1.24-0.44c-0.47,0-1.61,0-1.61,1a1.06,1.06,0,0,0,1.24.94,1.52,1.52,0,0,0,1.61-1V149.3Z" transform="translate(-49 -35.5)"/><path class="cls-1" d="M154.49,147a0.48,0.48,0,0,1-.46-0.5,0.47,0.47,0,0,1,.55-0.47h0.53v-1.08a0.51,0.51,0,0,1,.53-0.51,0.48,0.48,0,0,1,.49.5V146h1.26a0.48,0.48,0,0,1,.46.5,0.49,0.49,0,0,1-.46.47h-1.26v3.31a0.33,0.33,0,0,0,.29.42,0.85,0.85,0,0,0,.61-0.53,0.47,0.47,0,0,1,.37-0.17,0.53,0.53,0,0,1,.5.53,1.52,1.52,0,0,1-1.49,1.31,1.25,1.25,0,0,1-1.3-1.48V147h-0.61Z" transform="translate(-49 -35.5)"/><path class="cls-1" d="M162.87,147.74a1,1,0,0,0-.22-0.58,1.24,1.24,0,0,0-1-.34,2,2,0,0,0-1.39.39,0.74,0.74,0,0,1-.48.2,0.51,0.51,0,0,1-.49-0.53c0-.56,1-1.06,2.21-1.06a2.79,2.79,0,0,1,2,.59,1.73,1.73,0,0,1,.44,1.13v2.67a3,3,0,0,0,.1.67,1.41,1.41,0,0,1,.14.51,0.48,0.48,0,0,1-.52.44,0.61,0.61,0,0,1-.58-0.68,2.42,2.42,0,0,1-1.81.68c-2,0-2.26-1.37-2.26-1.94s0.34-2,2.54-2a2.76,2.76,0,0,1,1.37.29v-0.42Zm0,1.56s-0.16-.44-1.24-0.44c-0.47,0-1.61,0-1.61,1a1.06,1.06,0,0,0,1.24.94,1.52,1.52,0,0,0,1.61-1V149.3Z" transform="translate(-49 -35.5)"/><path class="cls-1" d="M165.74,144.32a0.52,0.52,0,1,1,1,0v2.15a2.13,2.13,0,0,1,1.62-.66c1.52,0,2.28,1.37,2.28,3s-0.78,3-2.39,3a1.75,1.75,0,0,1-1.57-.76,0.64,0.64,0,0,1-.52.76c-0.46,0-.46-0.46-0.46-0.87v-6.65Zm1,5.06a1.42,1.42,0,0,0,1.44,1.38c1.3,0,1.39-1.42,1.39-2s-0.13-1.9-1.38-1.9a1.42,1.42,0,0,0-1.45,1.35v1.13Z" transform="translate(-49 -35.5)"/><path class="cls-1" d="M175.93,147.74a1,1,0,0,0-.22-0.58,1.24,1.24,0,0,0-1-.34,2,2,0,0,0-1.39.39,0.74,0.74,0,0,1-.48.2,0.51,0.51,0,0,1-.49-0.53c0-.56,1-1.06,2.21-1.06a2.79,2.79,0,0,1,2,.59,1.73,1.73,0,0,1,.44,1.13v2.67a3,3,0,0,0,.1.67,1.41,1.41,0,0,1,.14.51,0.48,0.48,0,0,1-.52.44,0.61,0.61,0,0,1-.58-0.68,2.42,2.42,0,0,1-1.81.68c-2,0-2.26-1.37-2.26-1.94s0.34-2,2.54-2a2.76,2.76,0,0,1,1.37.29v-0.42Zm0,1.56s-0.16-.44-1.24-0.44c-0.47,0-1.61,0-1.61,1a1.06,1.06,0,0,0,1.24.94,1.52,1.52,0,0,0,1.61-1V149.3Z" transform="translate(-49 -35.5)"/><path class="cls-1" d="M178.44,150.28a0.48,0.48,0,0,1,.49-0.5,0.66,0.66,0,0,1,.57.4,1.82,1.82,0,0,0,1.41.66,0.87,0.87,0,0,0,1-.82c0-.52-0.48-0.66-1.14-0.8-1.73-.37-2.07-1-2.07-1.69a1.84,1.84,0,0,1,2-1.72c1,0,2.13.59,2.13,1.15a0.48,0.48,0,0,1-.48.5,0.85,0.85,0,0,1-.61-0.33,1.57,1.57,0,0,0-1-.34,0.84,0.84,0,0,0-1,.69c0,0.44.23,0.51,1.62,0.88A1.68,1.68,0,0,1,183,150a2,2,0,0,1-2.19,1.82A2.3,2.3,0,0,1,178.44,150.28Z" transform="translate(-49 -35.5)"/><path class="cls-1" d="M185.4,149.17a1.48,1.48,0,0,0,1.35,1.69,1.3,1.3,0,0,0,1.13-.75,0.53,0.53,0,0,1,.44-0.27,0.48,0.48,0,0,1,.45.52,1.9,1.9,0,0,1-2,1.48c-0.84,0-2.4-.4-2.4-3a3.1,3.1,0,0,1,.7-2.34,2,2,0,0,1,1.58-.7,2.25,2.25,0,0,1,2.17,2.46c0,0.57-.17.9-0.71,0.9H185.4Zm2.15-1c0.2,0,.23-0.06.23-0.19a1.17,1.17,0,0,0-1.12-1.23,1.39,1.39,0,0,0-1.23,1.41h2.12Z" transform="translate(-49 -35.5)"/><path class="cls-1" d="M73.15,151.3a0.53,0.53,0,0,1-.57.54,0.52,0.52,0,0,1-.55-0.53v-6.25a0.94,0.94,0,0,1,1-1.08h2.76a2.09,2.09,0,0,1,2.24,2.18,2.13,2.13,0,0,1-.67,1.63,2,2,0,0,1-1.16.48,1.93,1.93,0,0,1,.65.66l1.2,2a0.83,0.83,0,0,1,.14.41,0.54,0.54,0,0,1-.56.53,0.55,0.55,0,0,1-.56-0.33l-0.92-1.58c-0.49-.85-0.93-1.6-1.59-1.6H73.15v3Zm2.47-4a1.09,1.09,0,0,0,1.32-1.08A1.08,1.08,0,0,0,75.7,145H73.58c-0.23,0-.43,0-0.43.37v1.84h2.47Z" transform="translate(-49 -35.5)"/><path class="cls-1" d="M80.49,149.17a1.48,1.48,0,0,0,1.35,1.69,1.3,1.3,0,0,0,1.13-.75,0.53,0.53,0,0,1,.44-0.27,0.48,0.48,0,0,1,.45.52,1.9,1.9,0,0,1-2,1.48c-0.84,0-2.4-.4-2.4-3a3.1,3.1,0,0,1,.7-2.34,2,2,0,0,1,1.58-.7,2.25,2.25,0,0,1,2.17,2.46c0,0.57-.17.9-0.71,0.9H80.49Zm2.14-1c0.2,0,.23-0.06.23-0.19a1.17,1.17,0,0,0-1.12-1.23,1.39,1.39,0,0,0-1.23,1.41h2.12Z" transform="translate(-49 -35.5)"/><path class="cls-1" d="M85.51,146.7c0-.42,0-0.88.46-0.88a0.64,0.64,0,0,1,.52.77,1.75,1.75,0,0,1,1.57-.77c1.61,0,2.39,1.43,2.39,3s-0.76,3-2.28,3a2.14,2.14,0,0,1-1.62-.67v1.27a0.5,0.5,0,0,1-.5.53,0.54,0.54,0,0,1-.54-0.52V146.7Zm1,2.71A1.43,1.43,0,0,0,88,150.76c1.26,0,1.38-1.35,1.38-1.91s-0.1-2-1.39-2a1.43,1.43,0,0,0-1.44,1.38v1.13Z" transform="translate(-49 -35.5)"/><path class="cls-1" d="M97,148.83c0,1.39-.63,3-2.58,3s-2.59-1.62-2.59-3,0.62-3,2.59-3S97,147.45,97,148.83Zm-4.1,0a1.65,1.65,0,0,0,1.51,1.94c1.38,0,1.51-1.4,1.51-1.89,0-.79-0.22-2-1.51-2S92.88,148,92.88,148.83Z" transform="translate(-49 -35.5)"/><path class="cls-1" d="M98.21,150.28a0.48,0.48,0,0,1,.49-0.5,0.66,0.66,0,0,1,.57.4,1.82,1.82,0,0,0,1.41.66,0.87,0.87,0,0,0,1-.82c0-.52-0.48-0.66-1.14-0.8-1.73-.37-2.07-1-2.07-1.69a1.84,1.84,0,0,1,2-1.72c1,0,2.13.59,2.13,1.15a0.48,0.48,0,0,1-.48.5,0.85,0.85,0,0,1-.61-0.33,1.57,1.57,0,0,0-1-.34,0.84,0.84,0,0,0-1,.69c0,0.44.23,0.51,1.62,0.88a1.68,1.68,0,0,1,1.58,1.65,2,2,0,0,1-2.19,1.82A2.3,2.3,0,0,1,98.21,150.28Z" transform="translate(-49 -35.5)"/><path class="cls-1" d="M105.91,144.52a0.72,0.72,0,1,1-.72-0.72A0.71,0.71,0,0,1,105.91,144.52Zm-0.21,6.79a0.53,0.53,0,0,1-.53.53,0.55,0.55,0,0,1-.51-0.54v-4.94a0.55,0.55,0,0,1,.54-0.54,0.54,0.54,0,0,1,.5.53v5Z" transform="translate(-49 -35.5)"/><path class="cls-1" d="M107.84,147a0.48,0.48,0,0,1-.46-0.5,0.47,0.47,0,0,1,.55-0.47h0.53v-1.08a0.51,0.51,0,0,1,.53-0.51,0.48,0.48,0,0,1,.49.5V146h1.26a0.48,0.48,0,0,1,.46.5,0.49,0.49,0,0,1-.46.47h-1.26v3.31a0.33,0.33,0,0,0,.29.42,0.85,0.85,0,0,0,.61-0.53,0.47,0.47,0,0,1,.37-0.17,0.53,0.53,0,0,1,.5.53,1.52,1.52,0,0,1-1.49,1.31,1.25,1.25,0,0,1-1.3-1.48V147h-0.61Z" transform="translate(-49 -35.5)"/><path class="cls-1" d="M117.5,148.83c0,1.39-.63,3-2.58,3s-2.59-1.62-2.59-3,0.62-3,2.59-3S117.5,147.45,117.5,148.83Zm-4.1,0a1.65,1.65,0,0,0,1.51,1.94c1.38,0,1.51-1.4,1.51-1.89,0-.79-0.22-2-1.51-2S113.4,148,113.4,148.83Z" transform="translate(-49 -35.5)"/><path class="cls-1" d="M120.2,151.36a0.48,0.48,0,0,1-.53.48,0.5,0.5,0,0,1-.51-0.49v-4.73a0.63,0.63,0,0,1,.53-0.8c0.51,0,.51.45,0.51,0.75v0.22a1.92,1.92,0,0,1,1.62-1c0.18,0,1,.09,1,0.63a0.47,0.47,0,0,1-.44.5c-0.1,0-.53-0.09-0.61-0.09-0.81,0-1.61,1.41-1.61,1.72v2.78Z" transform="translate(-49 -35.5)"/><path class="cls-1" d="M124.05,146.72a0.72,0.72,0,0,1-.09-0.34,0.57,0.57,0,0,1,.54-0.56,0.5,0.5,0,0,1,.5.33l1.5,3c0.19,0.4.22,0.45,0.36,0.47l1.54-3.49a0.51,0.51,0,0,1,.5-0.36,0.52,0.52,0,0,1,.54.58,0.73,0.73,0,0,1-.06.28l-2.18,5a1.77,1.77,0,0,1-1.85,1.27c-0.9,0-1.4-.28-1.4-0.75a0.52,0.52,0,0,1,.51-0.53,2.1,2.1,0,0,1,.34.07,1.94,1.94,0,0,0,.6.11c0.39,0,.68-0.11,1-1.06a1,1,0,0,1-.63-0.64Z" transform="translate(-49 -35.5)"/><path class="cls-1" d="M141.24,151.66a0.88,0.88,0,0,1-.94-1.05V145a0.9,0.9,0,0,1,.93-1h1.86c2,0,3.25,1.65,3.25,3.86,0,2-1.07,3.82-3.06,3.82h-2Zm0.19-1.46a0.29,0.29,0,0,0,.32.33H143c1.65,0,2.16-1.47,2.16-2.71s-0.41-2.72-2.41-2.72h-0.88a0.41,0.41,0,0,0-.47.51v4.59Z" transform="translate(-49 -35.5)"/><path class="cls-1" d="M151.62,147.74a1,1,0,0,0-.22-0.58,1.24,1.24,0,0,0-1-.34,2,2,0,0,0-1.39.39,0.74,0.74,0,0,1-.48.2,0.51,0.51,0,0,1-.49-0.53c0-.56,1-1.06,2.21-1.06a2.79,2.79,0,0,1,2,.59,1.73,1.73,0,0,1,.44,1.13v2.67a3,3,0,0,0,.1.67,1.41,1.41,0,0,1,.14.51,0.48,0.48,0,0,1-.52.44,0.61,0.61,0,0,1-.58-0.68,2.42,2.42,0,0,1-1.81.68c-2,0-2.26-1.37-2.26-1.94s0.34-2,2.54-2a2.76,2.76,0,0,1,1.37.29v-0.42Zm0,1.56s-0.16-.44-1.24-0.44c-0.47,0-1.61,0-1.61,1a1.06,1.06,0,0,0,1.24.94,1.52,1.52,0,0,0,1.61-1V149.3Z" transform="translate(-49 -35.5)"/><path class="cls-1" d="M154.49,147a0.48,0.48,0,0,1-.46-0.5,0.47,0.47,0,0,1,.55-0.47h0.53v-1.08a0.51,0.51,0,0,1,.53-0.51,0.48,0.48,0,0,1,.49.5V146h1.26a0.48,0.48,0,0,1,.46.5,0.49,0.49,0,0,1-.46.47h-1.26v3.31a0.33,0.33,0,0,0,.29.42,0.85,0.85,0,0,0,.61-0.53,0.47,0.47,0,0,1,.37-0.17,0.53,0.53,0,0,1,.5.53,1.52,1.52,0,0,1-1.49,1.31,1.25,1.25,0,0,1-1.3-1.48V147h-0.61Z" transform="translate(-49 -35.5)"/><path class="cls-1" d="M162.87,147.74a1,1,0,0,0-.22-0.58,1.24,1.24,0,0,0-1-.34,2,2,0,0,0-1.39.39,0.74,0.74,0,0,1-.48.2,0.51,0.51,0,0,1-.49-0.53c0-.56,1-1.06,2.21-1.06a2.79,2.79,0,0,1,2,.59,1.73,1.73,0,0,1,.44,1.13v2.67a3,3,0,0,0,.1.67,1.41,1.41,0,0,1,.14.51,0.48,0.48,0,0,1-.52.44,0.61,0.61,0,0,1-.58-0.68,2.42,2.42,0,0,1-1.81.68c-2,0-2.26-1.37-2.26-1.94s0.34-2,2.54-2a2.76,2.76,0,0,1,1.37.29v-0.42Zm0,1.56s-0.16-.44-1.24-0.44c-0.47,0-1.61,0-1.61,1a1.06,1.06,0,0,0,1.24.94,1.52,1.52,0,0,0,1.61-1V149.3Z" transform="translate(-49 -35.5)"/><path class="cls-1" d="M165.74,144.32a0.52,0.52,0,1,1,1,0v2.15a2.13,2.13,0,0,1,1.62-.66c1.52,0,2.28,1.37,2.28,3s-0.78,3-2.39,3a1.75,1.75,0,0,1-1.57-.76,0.64,0.64,0,0,1-.52.76c-0.46,0-.46-0.46-0.46-0.87v-6.65Zm1,5.06a1.42,1.42,0,0,0,1.44,1.38c1.3,0,1.39-1.42,1.39-2s-0.13-1.9-1.38-1.9a1.42,1.42,0,0,0-1.45,1.35v1.13Z" transform="translate(-49 -35.5)"/><path class="cls-1" d="M175.93,147.74a1,1,0,0,0-.22-0.58,1.24,1.24,0,0,0-1-.34,2,2,0,0,0-1.39.39,0.74,0.74,0,0,1-.48.2,0.51,0.51,0,0,1-.49-0.53c0-.56,1-1.06,2.21-1.06a2.79,2.79,0,0,1,2,.59,1.73,1.73,0,0,1,.44,1.13v2.67a3,3,0,0,0,.1.67,1.41,1.41,0,0,1,.14.51,0.48,0.48,0,0,1-.52.44,0.61,0.61,0,0,1-.58-0.68,2.42,2.42,0,0,1-1.81.68c-2,0-2.26-1.37-2.26-1.94s0.34-2,2.54-2a2.76,2.76,0,0,1,1.37.29v-0.42Zm0,1.56s-0.16-.44-1.24-0.44c-0.47,0-1.61,0-1.61,1a1.06,1.06,0,0,0,1.24.94,1.52,1.52,0,0,0,1.61-1V149.3Z" transform="translate(-49 -35.5)"/><path class="cls-1" d="M178.44,150.28a0.48,0.48,0,0,1,.49-0.5,0.66,0.66,0,0,1,.57.4,1.82,1.82,0,0,0,1.41.66,0.87,0.87,0,0,0,1-.82c0-.52-0.48-0.66-1.14-0.8-1.73-.37-2.07-1-2.07-1.69a1.84,1.84,0,0,1,2-1.72c1,0,2.13.59,2.13,1.15a0.48,0.48,0,0,1-.48.5,0.85,0.85,0,0,1-.61-0.33,1.57,1.57,0,0,0-1-.34,0.84,0.84,0,0,0-1,.69c0,0.44.23,0.51,1.62,0.88A1.68,1.68,0,0,1,183,150a2,2,0,0,1-2.19,1.82A2.3,2.3,0,0,1,178.44,150.28Z" transform="translate(-49 -35.5)"/><path class="cls-1" d="M185.4,149.17a1.48,1.48,0,0,0,1.35,1.69,1.3,1.3,0,0,0,1.13-.75,0.53,0.53,0,0,1,.44-0.27,0.48,0.48,0,0,1,.45.52,1.9,1.9,0,0,1-2,1.48c-0.84,0-2.4-.4-2.4-3a3.1,3.1,0,0,1,.7-2.34,2,2,0,0,1,1.58-.7,2.25,2.25,0,0,1,2.17,2.46c0,0.57-.17.9-0.71,0.9H185.4Zm2.15-1c0.2,0,.23-0.06.23-0.19a1.17,1.17,0,0,0-1.12-1.23,1.39,1.39,0,0,0-1.23,1.41h2.12Z" transform="translate(-49 -35.5)"/><polygon class="cls-1" points="81.58 119.36 81.26 119.36 88.39 105.92 88.72 105.92 81.58 119.36"/><path class="cls-5" d="M73.15,149.3a0.53,0.53,0,0,1-.57.54,0.52,0.52,0,0,1-.55-0.53v-6.25a0.94,0.94,0,0,1,1-1.08h2.76a2.09,2.09,0,0,1,2.24,2.18,2.13,2.13,0,0,1-.67,1.63,2,2,0,0,1-1.16.48,1.93,1.93,0,0,1,.65.66l1.2,2a0.83,0.83,0,0,1,.14.41,0.54,0.54,0,0,1-.56.53,0.55,0.55,0,0,1-.56-0.33l-0.92-1.58c-0.49-.85-0.93-1.6-1.59-1.6H73.15v3Zm2.47-4a1.09,1.09,0,0,0,1.32-1.08A1.08,1.08,0,0,0,75.7,143H73.58c-0.23,0-.43,0-0.43.37v1.84h2.47Z" transform="translate(-49 -35.5)"/><path class="cls-5" d="M80.49,147.17a1.48,1.48,0,0,0,1.35,1.69,1.3,1.3,0,0,0,1.13-.75,0.53,0.53,0,0,1,.44-0.27,0.48,0.48,0,0,1,.45.52,1.9,1.9,0,0,1-2,1.48c-0.84,0-2.4-.4-2.4-3a3.1,3.1,0,0,1,.7-2.34,2,2,0,0,1,1.58-.7,2.25,2.25,0,0,1,2.17,2.46c0,0.57-.17.9-0.71,0.9H80.49Zm2.14-1c0.2,0,.23-0.06.23-0.19a1.17,1.17,0,0,0-1.12-1.23,1.39,1.39,0,0,0-1.23,1.41h2.12Z" transform="translate(-49 -35.5)"/><path class="cls-5" d="M85.51,144.7c0-.42,0-0.88.46-0.88a0.64,0.64,0,0,1,.52.77,1.75,1.75,0,0,1,1.57-.77c1.61,0,2.39,1.43,2.39,3s-0.76,3-2.28,3a2.14,2.14,0,0,1-1.62-.67v1.27a0.5,0.5,0,0,1-.5.53,0.54,0.54,0,0,1-.54-0.52V144.7Zm1,2.71A1.43,1.43,0,0,0,88,148.76c1.26,0,1.38-1.35,1.38-1.91s-0.1-2-1.39-2a1.43,1.43,0,0,0-1.44,1.38v1.13Z" transform="translate(-49 -35.5)"/><path class="cls-5" d="M97,146.83c0,1.39-.63,3-2.58,3s-2.59-1.62-2.59-3,0.62-3,2.59-3S97,145.45,97,146.83Zm-4.1,0a1.65,1.65,0,0,0,1.51,1.94c1.38,0,1.51-1.4,1.51-1.89,0-.79-0.22-2-1.51-2S92.88,146,92.88,146.83Z" transform="translate(-49 -35.5)"/><path class="cls-5" d="M98.21,148.28a0.48,0.48,0,0,1,.49-0.5,0.66,0.66,0,0,1,.57.4,1.82,1.82,0,0,0,1.41.66,0.87,0.87,0,0,0,1-.82c0-.52-0.48-0.66-1.14-0.8-1.73-.37-2.07-1-2.07-1.69a1.84,1.84,0,0,1,2-1.72c1,0,2.13.59,2.13,1.15a0.48,0.48,0,0,1-.48.5,0.85,0.85,0,0,1-.61-0.33,1.57,1.57,0,0,0-1-.34,0.84,0.84,0,0,0-1,.69c0,0.44.23,0.51,1.62,0.88a1.68,1.68,0,0,1,1.58,1.65,2,2,0,0,1-2.19,1.82A2.3,2.3,0,0,1,98.21,148.28Z" transform="translate(-49 -35.5)"/><path class="cls-5" d="M105.91,142.52a0.72,0.72,0,1,1-.72-0.72A0.71,0.71,0,0,1,105.91,142.52Zm-0.21,6.79a0.53,0.53,0,0,1-.53.53,0.55,0.55,0,0,1-.51-0.54v-4.94a0.55,0.55,0,0,1,.54-0.54,0.54,0.54,0,0,1,.5.53v5Z" transform="translate(-49 -35.5)"/><path class="cls-5" d="M107.84,145a0.48,0.48,0,0,1-.46-0.5,0.47,0.47,0,0,1,.55-0.47h0.53v-1.08a0.51,0.51,0,0,1,.53-0.51,0.48,0.48,0,0,1,.49.5V144h1.26a0.48,0.48,0,0,1,.46.5,0.49,0.49,0,0,1-.46.47h-1.26v3.31a0.33,0.33,0,0,0,.29.42,0.85,0.85,0,0,0,.61-0.53,0.47,0.47,0,0,1,.37-0.17,0.53,0.53,0,0,1,.5.53,1.52,1.52,0,0,1-1.49,1.31,1.25,1.25,0,0,1-1.3-1.48V145h-0.61Z" transform="translate(-49 -35.5)"/><path class="cls-5" d="M117.5,146.83c0,1.39-.63,3-2.58,3s-2.59-1.62-2.59-3,0.62-3,2.59-3S117.5,145.45,117.5,146.83Zm-4.1,0a1.65,1.65,0,0,0,1.51,1.94c1.38,0,1.51-1.4,1.51-1.89,0-.79-0.22-2-1.51-2S113.4,146,113.4,146.83Z" transform="translate(-49 -35.5)"/><path class="cls-5" d="M120.2,149.36a0.48,0.48,0,0,1-.53.48,0.5,0.5,0,0,1-.51-0.49v-4.73a0.63,0.63,0,0,1,.53-0.8c0.51,0,.51.45,0.51,0.75v0.22a1.92,1.92,0,0,1,1.62-1c0.18,0,1,.09,1,0.63a0.47,0.47,0,0,1-.44.5c-0.1,0-.53-0.09-0.61-0.09-0.81,0-1.61,1.41-1.61,1.72v2.78Z" transform="translate(-49 -35.5)"/><path class="cls-5" d="M124.05,144.72a0.72,0.72,0,0,1-.09-0.34,0.57,0.57,0,0,1,.54-0.56,0.5,0.5,0,0,1,.5.33l1.5,3c0.19,0.4.22,0.45,0.36,0.47l1.54-3.49a0.51,0.51,0,0,1,.5-0.36,0.52,0.52,0,0,1,.54.58,0.73,0.73,0,0,1-.06.28l-2.18,5a1.77,1.77,0,0,1-1.85,1.27c-0.9,0-1.4-.28-1.4-0.75a0.52,0.52,0,0,1,.51-0.53,2.1,2.1,0,0,1,.34.07,1.94,1.94,0,0,0,.6.11c0.39,0,.68-0.11,1-1.06a1,1,0,0,1-.63-0.64Z" transform="translate(-49 -35.5)"/><path class="cls-5" d="M141.24,149.66a0.88,0.88,0,0,1-.94-1.05V143a0.9,0.9,0,0,1,.93-1h1.86c2,0,3.25,1.65,3.25,3.86,0,2-1.07,3.82-3.06,3.82h-2Zm0.19-1.46a0.29,0.29,0,0,0,.32.33H143c1.65,0,2.16-1.47,2.16-2.71s-0.41-2.72-2.41-2.72h-0.88a0.41,0.41,0,0,0-.47.51v4.59Z" transform="translate(-49 -35.5)"/><path class="cls-5" d="M151.62,145.74a1,1,0,0,0-.22-0.58,1.24,1.24,0,0,0-1-.34,2,2,0,0,0-1.39.39,0.74,0.74,0,0,1-.48.2,0.51,0.51,0,0,1-.49-0.53c0-.56,1-1.06,2.21-1.06a2.79,2.79,0,0,1,2,.59,1.73,1.73,0,0,1,.44,1.13v2.67a3,3,0,0,0,.1.67,1.41,1.41,0,0,1,.14.51,0.48,0.48,0,0,1-.52.44,0.61,0.61,0,0,1-.58-0.68,2.42,2.42,0,0,1-1.81.68c-2,0-2.26-1.37-2.26-1.94s0.34-2,2.54-2a2.76,2.76,0,0,1,1.37.29v-0.42Zm0,1.56s-0.16-.44-1.24-0.44c-0.47,0-1.61,0-1.61,1a1.06,1.06,0,0,0,1.24.94,1.52,1.52,0,0,0,1.61-1V147.3Z" transform="translate(-49 -35.5)"/><path class="cls-5" d="M154.49,145a0.48,0.48,0,0,1-.46-0.5,0.47,0.47,0,0,1,.55-0.47h0.53v-1.08a0.51,0.51,0,0,1,.53-0.51,0.48,0.48,0,0,1,.49.5V144h1.26a0.48,0.48,0,0,1,.46.5,0.49,0.49,0,0,1-.46.47h-1.26v3.31a0.33,0.33,0,0,0,.29.42,0.85,0.85,0,0,0,.61-0.53,0.47,0.47,0,0,1,.37-0.17,0.53,0.53,0,0,1,.5.53,1.52,1.52,0,0,1-1.49,1.31,1.25,1.25,0,0,1-1.3-1.48V145h-0.61Z" transform="translate(-49 -35.5)"/><path class="cls-5" d="M162.87,145.74a1,1,0,0,0-.22-0.58,1.24,1.24,0,0,0-1-.34,2,2,0,0,0-1.39.39,0.74,0.74,0,0,1-.48.2,0.51,0.51,0,0,1-.49-0.53c0-.56,1-1.06,2.21-1.06a2.79,2.79,0,0,1,2,.59,1.73,1.73,0,0,1,.44,1.13v2.67a3,3,0,0,0,.1.67,1.41,1.41,0,0,1,.14.51,0.48,0.48,0,0,1-.52.44,0.61,0.61,0,0,1-.58-0.68,2.42,2.42,0,0,1-1.81.68c-2,0-2.26-1.37-2.26-1.94s0.34-2,2.54-2a2.76,2.76,0,0,1,1.37.29v-0.42Zm0,1.56s-0.16-.44-1.24-0.44c-0.47,0-1.61,0-1.61,1a1.06,1.06,0,0,0,1.24.94,1.52,1.52,0,0,0,1.61-1V147.3Z" transform="translate(-49 -35.5)"/><path class="cls-5" d="M165.74,142.32a0.52,0.52,0,1,1,1,0v2.15a2.13,2.13,0,0,1,1.62-.66c1.52,0,2.28,1.37,2.28,3s-0.78,3-2.39,3a1.75,1.75,0,0,1-1.57-.76,0.64,0.64,0,0,1-.52.76c-0.46,0-.46-0.46-0.46-0.87v-6.65Zm1,5.06a1.42,1.42,0,0,0,1.44,1.38c1.3,0,1.39-1.42,1.39-2s-0.13-1.9-1.38-1.9a1.42,1.42,0,0,0-1.45,1.35v1.13Z" transform="translate(-49 -35.5)"/><path class="cls-5" d="M175.93,145.74a1,1,0,0,0-.22-0.58,1.24,1.24,0,0,0-1-.34,2,2,0,0,0-1.39.39,0.74,0.74,0,0,1-.48.2,0.51,0.51,0,0,1-.49-0.53c0-.56,1-1.06,2.21-1.06a2.79,2.79,0,0,1,2,.59,1.73,1.73,0,0,1,.44,1.13v2.67a3,3,0,0,0,.1.67,1.41,1.41,0,0,1,.14.51,0.48,0.48,0,0,1-.52.44,0.61,0.61,0,0,1-.58-0.68,2.42,2.42,0,0,1-1.81.68c-2,0-2.26-1.37-2.26-1.94s0.34-2,2.54-2a2.76,2.76,0,0,1,1.37.29v-0.42Zm0,1.56s-0.16-.44-1.24-0.44c-0.47,0-1.61,0-1.61,1a1.06,1.06,0,0,0,1.24.94,1.52,1.52,0,0,0,1.61-1V147.3Z" transform="translate(-49 -35.5)"/><path class="cls-5" d="M178.44,148.28a0.48,0.48,0,0,1,.49-0.5,0.66,0.66,0,0,1,.57.4,1.82,1.82,0,0,0,1.41.66,0.87,0.87,0,0,0,1-.82c0-.52-0.48-0.66-1.14-0.8-1.73-.37-2.07-1-2.07-1.69a1.84,1.84,0,0,1,2-1.72c1,0,2.13.59,2.13,1.15a0.48,0.48,0,0,1-.48.5,0.85,0.85,0,0,1-.61-0.33,1.57,1.57,0,0,0-1-.34,0.84,0.84,0,0,0-1,.69c0,0.44.23,0.51,1.62,0.88A1.68,1.68,0,0,1,183,148a2,2,0,0,1-2.19,1.82A2.3,2.3,0,0,1,178.44,148.28Z" transform="translate(-49 -35.5)"/><path class="cls-5" d="M185.4,147.17a1.48,1.48,0,0,0,1.35,1.69,1.3,1.3,0,0,0,1.13-.75,0.53,0.53,0,0,1,.44-0.27,0.48,0.48,0,0,1,.45.52,1.9,1.9,0,0,1-2,1.48c-0.84,0-2.4-.4-2.4-3a3.1,3.1,0,0,1,.7-2.34,2,2,0,0,1,1.58-.7,2.25,2.25,0,0,1,2.17,2.46c0,0.57-.17.9-0.71,0.9H185.4Zm2.15-1c0.2,0,.23-0.06.23-0.19a1.17,1.17,0,0,0-1.12-1.23,1.39,1.39,0,0,0-1.23,1.41h2.12Z" transform="translate(-49 -35.5)"/><polygon class="cls-5" points="81.58 117.36 81.26 117.36 88.39 103.92 88.72 103.92 81.58 117.36"/></svg>